<?xml version="1.0" encoding="utf-8" standalone="no"?>
<!DOCTYPE svg PUBLIC "-//W3C//DTD SVG 1.1//EN"
  "http://www.w3.org/Graphics/SVG/1.1/DTD/svg11.dtd">
<svg xmlns:xlink="http://www.w3.org/1999/xlink" width="1008pt" height="432pt" viewBox="0 0 1008 432" xmlns="http://www.w3.org/2000/svg" version="1.1">
 <metadata>
  <rdf:RDF xmlns:dc="http://purl.org/dc/elements/1.1/" xmlns:cc="http://creativecommons.org/ns#" xmlns:rdf="http://www.w3.org/1999/02/22-rdf-syntax-ns#">
   <cc:Work>
    <dc:type rdf:resource="http://purl.org/dc/dcmitype/StillImage"/>
    <dc:date>2025-05-27T17:17:10.259625</dc:date>
    <dc:format>image/svg+xml</dc:format>
    <dc:creator>
     <cc:Agent>
      <dc:title>Matplotlib v3.7.5, https://matplotlib.org/</dc:title>
     </cc:Agent>
    </dc:creator>
   </cc:Work>
  </rdf:RDF>
 </metadata>
 <defs>
  <style type="text/css">*{stroke-linejoin: round; stroke-linecap: butt}</style>
 </defs>
 <g id="figure_1">
  <g id="patch_1">
   <path d="M 0 432 
L 1008 432 
L 1008 0 
L 0 0 
z
" style="fill: #ffffff"/>
  </g>
  <g id="axes_1">
   <g id="patch_2">
    <path d="M 44.57 389.93875 
L 498.6 389.93875 
L 498.6 31.68 
L 44.57 31.68 
z
" style="fill: #ffffff"/>
   </g>
   <g id="patch_3">
    <path d="M 66.050083 389.93875 
L 72.788933 389.93875 
L 72.788933 378.173274 
L 66.050083 378.173274 
z
" clip-path="url(#p5a792a12ac)" style="fill: #808080; opacity: 0.8"/>
   </g>
   <g id="patch_4">
    <path d="M 74.473646 389.93875 
L 81.212495 389.93875 
L 81.212495 389.93875 
L 74.473646 389.93875 
z
" clip-path="url(#p5a792a12ac)" style="fill: #808080; opacity: 0.8"/>
   </g>
   <g id="patch_5">
    <path d="M 82.897208 389.93875 
L 89.636058 389.93875 
L 89.636058 389.93875 
L 82.897208 389.93875 
z
" clip-path="url(#p5a792a12ac)" style="fill: #808080; opacity: 0.8"/>
   </g>
   <g id="patch_6">
    <path d="M 91.32077 389.93875 
L 98.05962 389.93875 
L 98.05962 366.407798 
L 91.32077 366.407798 
z
" clip-path="url(#p5a792a12ac)" style="fill: #808080; opacity: 0.8"/>
   </g>
   <g id="patch_7">
    <path d="M 99.744332 389.93875 
L 106.483182 389.93875 
L 106.483182 319.345893 
L 99.744332 319.345893 
z
" clip-path="url(#p5a792a12ac)" style="fill: #808080; opacity: 0.8"/>
   </g>
   <g id="patch_8">
    <path d="M 108.167894 389.93875 
L 114.906744 389.93875 
L 114.906744 225.222083 
L 108.167894 225.222083 
z
" clip-path="url(#p5a792a12ac)" style="fill: #808080; opacity: 0.8"/>
   </g>
   <g id="patch_9">
    <path d="M 116.591456 389.93875 
L 123.330306 389.93875 
L 123.330306 354.642321 
L 116.591456 354.642321 
z
" clip-path="url(#p5a792a12ac)" style="fill: #808080; opacity: 0.8"/>
   </g>
   <g id="patch_10">
    <path d="M 125.015019 389.93875 
L 131.753868 389.93875 
L 131.753868 284.049464 
L 125.015019 284.049464 
z
" clip-path="url(#p5a792a12ac)" style="fill: #808080; opacity: 0.8"/>
   </g>
   <g id="patch_11">
    <path d="M 133.438581 389.93875 
L 140.17743 389.93875 
L 140.17743 178.160179 
L 133.438581 178.160179 
z
" clip-path="url(#p5a792a12ac)" style="fill: #808080; opacity: 0.8"/>
   </g>
   <g id="patch_12">
    <path d="M 141.862143 389.93875 
L 148.600993 389.93875 
L 148.600993 201.691131 
L 141.862143 201.691131 
z
" clip-path="url(#p5a792a12ac)" style="fill: #808080; opacity: 0.8"/>
   </g>
   <g id="patch_13">
    <path d="M 150.285705 389.93875 
L 157.024555 389.93875 
L 157.024555 178.160179 
L 150.285705 178.160179 
z
" clip-path="url(#p5a792a12ac)" style="fill: #808080; opacity: 0.8"/>
   </g>
   <g id="patch_14">
    <path d="M 158.709267 389.93875 
L 165.448117 389.93875 
L 165.448117 189.925655 
L 158.709267 189.925655 
z
" clip-path="url(#p5a792a12ac)" style="fill: #808080; opacity: 0.8"/>
   </g>
   <g id="patch_15">
    <path d="M 167.132829 389.93875 
L 173.871679 389.93875 
L 173.871679 48.73994 
L 167.132829 48.73994 
z
" clip-path="url(#p5a792a12ac)" style="fill: #808080; opacity: 0.8"/>
   </g>
   <g id="patch_16">
    <path d="M 175.556391 389.93875 
L 182.295241 389.93875 
L 182.295241 236.98756 
L 175.556391 236.98756 
z
" clip-path="url(#p5a792a12ac)" style="fill: #808080; opacity: 0.8"/>
   </g>
   <g id="patch_17">
    <path d="M 183.979954 389.93875 
L 190.718803 389.93875 
L 190.718803 72.270893 
L 183.979954 72.270893 
z
" clip-path="url(#p5a792a12ac)" style="fill: #808080; opacity: 0.8"/>
   </g>
   <g id="patch_18">
    <path d="M 192.403516 389.93875 
L 199.142365 389.93875 
L 199.142365 213.456607 
L 192.403516 213.456607 
z
" clip-path="url(#p5a792a12ac)" style="fill: #808080; opacity: 0.8"/>
   </g>
   <g id="patch_19">
    <path d="M 200.827078 389.93875 
L 207.565928 389.93875 
L 207.565928 84.036369 
L 200.827078 84.036369 
z
" clip-path="url(#p5a792a12ac)" style="fill: #808080; opacity: 0.8"/>
   </g>
   <g id="patch_20">
    <path d="M 209.25064 389.93875 
L 215.98949 389.93875 
L 215.98949 225.222083 
L 209.25064 225.222083 
z
" clip-path="url(#p5a792a12ac)" style="fill: #808080; opacity: 0.8"/>
   </g>
   <g id="patch_21">
    <path d="M 217.674202 389.93875 
L 224.413052 389.93875 
L 224.413052 201.691131 
L 217.674202 201.691131 
z
" clip-path="url(#p5a792a12ac)" style="fill: #808080; opacity: 0.8"/>
   </g>
   <g id="patch_22">
    <path d="M 226.097764 389.93875 
L 232.836614 389.93875 
L 232.836614 131.098274 
L 226.097764 131.098274 
z
" clip-path="url(#p5a792a12ac)" style="fill: #808080; opacity: 0.8"/>
   </g>
   <g id="patch_23">
    <path d="M 234.521327 389.93875 
L 241.260176 389.93875 
L 241.260176 225.222083 
L 234.521327 225.222083 
z
" clip-path="url(#p5a792a12ac)" style="fill: #808080; opacity: 0.8"/>
   </g>
   <g id="patch_24">
    <path d="M 242.944889 389.93875 
L 249.683738 389.93875 
L 249.683738 166.394702 
L 242.944889 166.394702 
z
" clip-path="url(#p5a792a12ac)" style="fill: #808080; opacity: 0.8"/>
   </g>
   <g id="patch_25">
    <path d="M 251.368451 389.93875 
L 258.107301 389.93875 
L 258.107301 236.98756 
L 251.368451 236.98756 
z
" clip-path="url(#p5a792a12ac)" style="fill: #808080; opacity: 0.8"/>
   </g>
   <g id="patch_26">
    <path d="M 259.792013 389.93875 
L 266.530863 389.93875 
L 266.530863 213.456607 
L 259.792013 213.456607 
z
" clip-path="url(#p5a792a12ac)" style="fill: #808080; opacity: 0.8"/>
   </g>
   <g id="patch_27">
    <path d="M 268.215575 389.93875 
L 274.954425 389.93875 
L 274.954425 260.518512 
L 268.215575 260.518512 
z
" clip-path="url(#p5a792a12ac)" style="fill: #808080; opacity: 0.8"/>
   </g>
   <g id="patch_28">
    <path d="M 276.639137 389.93875 
L 283.377987 389.93875 
L 283.377987 260.518512 
L 276.639137 260.518512 
z
" clip-path="url(#p5a792a12ac)" style="fill: #808080; opacity: 0.8"/>
   </g>
   <g id="patch_29">
    <path d="M 285.062699 389.93875 
L 291.801549 389.93875 
L 291.801549 272.283988 
L 285.062699 272.283988 
z
" clip-path="url(#p5a792a12ac)" style="fill: #808080; opacity: 0.8"/>
   </g>
   <g id="patch_30">
    <path d="M 293.486262 389.93875 
L 300.225111 389.93875 
L 300.225111 295.81494 
L 293.486262 295.81494 
z
" clip-path="url(#p5a792a12ac)" style="fill: #808080; opacity: 0.8"/>
   </g>
   <g id="patch_31">
    <path d="M 301.909824 389.93875 
L 308.648673 389.93875 
L 308.648673 342.876845 
L 301.909824 342.876845 
z
" clip-path="url(#p5a792a12ac)" style="fill: #808080; opacity: 0.8"/>
   </g>
   <g id="patch_32">
    <path d="M 310.333386 389.93875 
L 317.072236 389.93875 
L 317.072236 354.642321 
L 310.333386 354.642321 
z
" clip-path="url(#p5a792a12ac)" style="fill: #808080; opacity: 0.8"/>
   </g>
   <g id="patch_33">
    <path d="M 318.756948 389.93875 
L 325.495798 389.93875 
L 325.495798 354.642321 
L 318.756948 354.642321 
z
" clip-path="url(#p5a792a12ac)" style="fill: #808080; opacity: 0.8"/>
   </g>
   <g id="patch_34">
    <path d="M 327.18051 389.93875 
L 333.91936 389.93875 
L 333.91936 354.642321 
L 327.18051 354.642321 
z
" clip-path="url(#p5a792a12ac)" style="fill: #808080; opacity: 0.8"/>
   </g>
   <g id="patch_35">
    <path d="M 335.604072 389.93875 
L 342.342922 389.93875 
L 342.342922 331.111369 
L 335.604072 331.111369 
z
" clip-path="url(#p5a792a12ac)" style="fill: #808080; opacity: 0.8"/>
   </g>
   <g id="patch_36">
    <path d="M 344.027635 389.93875 
L 350.766484 389.93875 
L 350.766484 366.407798 
L 344.027635 366.407798 
z
" clip-path="url(#p5a792a12ac)" style="fill: #808080; opacity: 0.8"/>
   </g>
   <g id="patch_37">
    <path d="M 352.451197 389.93875 
L 359.190046 389.93875 
L 359.190046 366.407798 
L 352.451197 366.407798 
z
" clip-path="url(#p5a792a12ac)" style="fill: #808080; opacity: 0.8"/>
   </g>
   <g id="patch_38">
    <path d="M 360.874759 389.93875 
L 367.613609 389.93875 
L 367.613609 389.93875 
L 360.874759 389.93875 
z
" clip-path="url(#p5a792a12ac)" style="fill: #808080; opacity: 0.8"/>
   </g>
   <g id="patch_39">
    <path d="M 369.298321 389.93875 
L 376.037171 389.93875 
L 376.037171 366.407798 
L 369.298321 366.407798 
z
" clip-path="url(#p5a792a12ac)" style="fill: #808080; opacity: 0.8"/>
   </g>
   <g id="patch_40">
    <path d="M 377.721883 389.93875 
L 384.460733 389.93875 
L 384.460733 354.642321 
L 377.721883 354.642321 
z
" clip-path="url(#p5a792a12ac)" style="fill: #808080; opacity: 0.8"/>
   </g>
   <g id="patch_41">
    <path d="M 386.145445 389.93875 
L 392.884295 389.93875 
L 392.884295 354.642321 
L 386.145445 354.642321 
z
" clip-path="url(#p5a792a12ac)" style="fill: #808080; opacity: 0.8"/>
   </g>
   <g id="patch_42">
    <path d="M 394.569007 389.93875 
L 401.307857 389.93875 
L 401.307857 389.93875 
L 394.569007 389.93875 
z
" clip-path="url(#p5a792a12ac)" style="fill: #808080; opacity: 0.8"/>
   </g>
   <g id="patch_43">
    <path d="M 402.99257 389.93875 
L 409.731419 389.93875 
L 409.731419 378.173274 
L 402.99257 378.173274 
z
" clip-path="url(#p5a792a12ac)" style="fill: #808080; opacity: 0.8"/>
   </g>
   <g id="patch_44">
    <path d="M 411.416132 389.93875 
L 418.154981 389.93875 
L 418.154981 378.173274 
L 411.416132 378.173274 
z
" clip-path="url(#p5a792a12ac)" style="fill: #808080; opacity: 0.8"/>
   </g>
   <g id="patch_45">
    <path d="M 419.839694 389.93875 
L 426.578544 389.93875 
L 426.578544 389.93875 
L 419.839694 389.93875 
z
" clip-path="url(#p5a792a12ac)" style="fill: #808080; opacity: 0.8"/>
   </g>
   <g id="patch_46">
    <path d="M 428.263256 389.93875 
L 435.002106 389.93875 
L 435.002106 378.173274 
L 428.263256 378.173274 
z
" clip-path="url(#p5a792a12ac)" style="fill: #808080; opacity: 0.8"/>
   </g>
   <g id="patch_47">
    <path d="M 436.686818 389.93875 
L 443.425668 389.93875 
L 443.425668 389.93875 
L 436.686818 389.93875 
z
" clip-path="url(#p5a792a12ac)" style="fill: #808080; opacity: 0.8"/>
   </g>
   <g id="patch_48">
    <path d="M 445.11038 389.93875 
L 451.84923 389.93875 
L 451.84923 389.93875 
L 445.11038 389.93875 
z
" clip-path="url(#p5a792a12ac)" style="fill: #808080; opacity: 0.8"/>
   </g>
   <g id="patch_49">
    <path d="M 453.533942 389.93875 
L 460.272792 389.93875 
L 460.272792 389.93875 
L 453.533942 389.93875 
z
" clip-path="url(#p5a792a12ac)" style="fill: #808080; opacity: 0.8"/>
   </g>
   <g id="patch_50">
    <path d="M 461.957505 389.93875 
L 468.696354 389.93875 
L 468.696354 389.93875 
L 461.957505 389.93875 
z
" clip-path="url(#p5a792a12ac)" style="fill: #808080; opacity: 0.8"/>
   </g>
   <g id="patch_51">
    <path d="M 470.381067 389.93875 
L 477.119917 389.93875 
L 477.119917 389.93875 
L 470.381067 389.93875 
z
" clip-path="url(#p5a792a12ac)" style="fill: #808080; opacity: 0.8"/>
   </g>
   <g id="matplotlib.axis_1">
    <g id="xtick_1">
     <g id="line2d_1">
      <defs>
       <path id="mf88019acc6" d="M 0 0 
L 0 3.5 
" style="stroke: #000000; stroke-width: 0.8"/>
      </defs>
      <g>
       <use xlink:href="#mf88019acc6" x="71.112869" y="389.93875" style="stroke: #000000; stroke-width: 0.8"/>
      </g>
     </g>
     <g id="text_1">
      <!-- 5000 -->
      <g transform="translate(58.387869 404.537187) scale(0.1 -0.1)">
       <defs>
        <path id="DejaVuSans-35" d="M 691 4666 
L 3169 4666 
L 3169 4134 
L 1269 4134 
L 1269 2991 
Q 1406 3038 1543 3061 
Q 1681 3084 1819 3084 
Q 2600 3084 3056 2656 
Q 3513 2228 3513 1497 
Q 3513 744 3044 326 
Q 2575 -91 1722 -91 
Q 1428 -91 1123 -41 
Q 819 9 494 109 
L 494 744 
Q 775 591 1075 516 
Q 1375 441 1709 441 
Q 2250 441 2565 725 
Q 2881 1009 2881 1497 
Q 2881 1984 2565 2268 
Q 2250 2553 1709 2553 
Q 1456 2553 1204 2497 
Q 953 2441 691 2322 
L 691 4666 
z
" transform="scale(0.015625)"/>
        <path id="DejaVuSans-30" d="M 2034 4250 
Q 1547 4250 1301 3770 
Q 1056 3291 1056 2328 
Q 1056 1369 1301 889 
Q 1547 409 2034 409 
Q 2525 409 2770 889 
Q 3016 1369 3016 2328 
Q 3016 3291 2770 3770 
Q 2525 4250 2034 4250 
z
M 2034 4750 
Q 2819 4750 3233 4129 
Q 3647 3509 3647 2328 
Q 3647 1150 3233 529 
Q 2819 -91 2034 -91 
Q 1250 -91 836 529 
Q 422 1150 422 2328 
Q 422 3509 836 4129 
Q 1250 4750 2034 4750 
z
" transform="scale(0.015625)"/>
       </defs>
       <use xlink:href="#DejaVuSans-35"/>
       <use xlink:href="#DejaVuSans-30" x="63.623047"/>
       <use xlink:href="#DejaVuSans-30" x="127.246094"/>
       <use xlink:href="#DejaVuSans-30" x="190.869141"/>
      </g>
     </g>
    </g>
    <g id="xtick_2">
     <g id="line2d_2">
      <g>
       <use xlink:href="#mf88019acc6" x="150.172381" y="389.93875" style="stroke: #000000; stroke-width: 0.8"/>
      </g>
     </g>
     <g id="text_2">
      <!-- 10000 -->
      <g transform="translate(134.266131 404.537187) scale(0.1 -0.1)">
       <defs>
        <path id="DejaVuSans-31" d="M 794 531 
L 1825 531 
L 1825 4091 
L 703 3866 
L 703 4441 
L 1819 4666 
L 2450 4666 
L 2450 531 
L 3481 531 
L 3481 0 
L 794 0 
L 794 531 
z
" transform="scale(0.015625)"/>
       </defs>
       <use xlink:href="#DejaVuSans-31"/>
       <use xlink:href="#DejaVuSans-30" x="63.623047"/>
       <use xlink:href="#DejaVuSans-30" x="127.246094"/>
       <use xlink:href="#DejaVuSans-30" x="190.869141"/>
       <use xlink:href="#DejaVuSans-30" x="254.492188"/>
      </g>
     </g>
    </g>
    <g id="xtick_3">
     <g id="line2d_3">
      <g>
       <use xlink:href="#mf88019acc6" x="229.231893" y="389.93875" style="stroke: #000000; stroke-width: 0.8"/>
      </g>
     </g>
     <g id="text_3">
      <!-- 15000 -->
      <g transform="translate(213.325643 404.537187) scale(0.1 -0.1)">
       <use xlink:href="#DejaVuSans-31"/>
       <use xlink:href="#DejaVuSans-35" x="63.623047"/>
       <use xlink:href="#DejaVuSans-30" x="127.246094"/>
       <use xlink:href="#DejaVuSans-30" x="190.869141"/>
       <use xlink:href="#DejaVuSans-30" x="254.492188"/>
      </g>
     </g>
    </g>
    <g id="xtick_4">
     <g id="line2d_4">
      <g>
       <use xlink:href="#mf88019acc6" x="308.291405" y="389.93875" style="stroke: #000000; stroke-width: 0.8"/>
      </g>
     </g>
     <g id="text_4">
      <!-- 20000 -->
      <g transform="translate(292.385155 404.537187) scale(0.1 -0.1)">
       <defs>
        <path id="DejaVuSans-32" d="M 1228 531 
L 3431 531 
L 3431 0 
L 469 0 
L 469 531 
Q 828 903 1448 1529 
Q 2069 2156 2228 2338 
Q 2531 2678 2651 2914 
Q 2772 3150 2772 3378 
Q 2772 3750 2511 3984 
Q 2250 4219 1831 4219 
Q 1534 4219 1204 4116 
Q 875 4013 500 3803 
L 500 4441 
Q 881 4594 1212 4672 
Q 1544 4750 1819 4750 
Q 2544 4750 2975 4387 
Q 3406 4025 3406 3419 
Q 3406 3131 3298 2873 
Q 3191 2616 2906 2266 
Q 2828 2175 2409 1742 
Q 1991 1309 1228 531 
z
" transform="scale(0.015625)"/>
       </defs>
       <use xlink:href="#DejaVuSans-32"/>
       <use xlink:href="#DejaVuSans-30" x="63.623047"/>
       <use xlink:href="#DejaVuSans-30" x="127.246094"/>
       <use xlink:href="#DejaVuSans-30" x="190.869141"/>
       <use xlink:href="#DejaVuSans-30" x="254.492188"/>
      </g>
     </g>
    </g>
    <g id="xtick_5">
     <g id="line2d_5">
      <g>
       <use xlink:href="#mf88019acc6" x="387.350917" y="389.93875" style="stroke: #000000; stroke-width: 0.8"/>
      </g>
     </g>
     <g id="text_5">
      <!-- 25000 -->
      <g transform="translate(371.444667 404.537187) scale(0.1 -0.1)">
       <use xlink:href="#DejaVuSans-32"/>
       <use xlink:href="#DejaVuSans-35" x="63.623047"/>
       <use xlink:href="#DejaVuSans-30" x="127.246094"/>
       <use xlink:href="#DejaVuSans-30" x="190.869141"/>
       <use xlink:href="#DejaVuSans-30" x="254.492188"/>
      </g>
     </g>
    </g>
    <g id="xtick_6">
     <g id="line2d_6">
      <g>
       <use xlink:href="#mf88019acc6" x="466.410429" y="389.93875" style="stroke: #000000; stroke-width: 0.8"/>
      </g>
     </g>
     <g id="text_6">
      <!-- 30000 -->
      <g transform="translate(450.504179 404.537187) scale(0.1 -0.1)">
       <defs>
        <path id="DejaVuSans-33" d="M 2597 2516 
Q 3050 2419 3304 2112 
Q 3559 1806 3559 1356 
Q 3559 666 3084 287 
Q 2609 -91 1734 -91 
Q 1441 -91 1130 -33 
Q 819 25 488 141 
L 488 750 
Q 750 597 1062 519 
Q 1375 441 1716 441 
Q 2309 441 2620 675 
Q 2931 909 2931 1356 
Q 2931 1769 2642 2001 
Q 2353 2234 1838 2234 
L 1294 2234 
L 1294 2753 
L 1863 2753 
Q 2328 2753 2575 2939 
Q 2822 3125 2822 3475 
Q 2822 3834 2567 4026 
Q 2313 4219 1838 4219 
Q 1578 4219 1281 4162 
Q 984 4106 628 3988 
L 628 4550 
Q 988 4650 1302 4700 
Q 1616 4750 1894 4750 
Q 2613 4750 3031 4423 
Q 3450 4097 3450 3541 
Q 3450 3153 3228 2886 
Q 3006 2619 2597 2516 
z
" transform="scale(0.015625)"/>
       </defs>
       <use xlink:href="#DejaVuSans-33"/>
       <use xlink:href="#DejaVuSans-30" x="63.623047"/>
       <use xlink:href="#DejaVuSans-30" x="127.246094"/>
       <use xlink:href="#DejaVuSans-30" x="190.869141"/>
       <use xlink:href="#DejaVuSans-30" x="254.492188"/>
      </g>
     </g>
    </g>
    <g id="text_7">
     <!-- Polypodiales_sigma2 -->
     <g transform="translate(219.62875 418.215312) scale(0.1 -0.1)">
      <defs>
       <path id="DejaVuSans-50" d="M 1259 4147 
L 1259 2394 
L 2053 2394 
Q 2494 2394 2734 2622 
Q 2975 2850 2975 3272 
Q 2975 3691 2734 3919 
Q 2494 4147 2053 4147 
L 1259 4147 
z
M 628 4666 
L 2053 4666 
Q 2838 4666 3239 4311 
Q 3641 3956 3641 3272 
Q 3641 2581 3239 2228 
Q 2838 1875 2053 1875 
L 1259 1875 
L 1259 0 
L 628 0 
L 628 4666 
z
" transform="scale(0.015625)"/>
       <path id="DejaVuSans-6f" d="M 1959 3097 
Q 1497 3097 1228 2736 
Q 959 2375 959 1747 
Q 959 1119 1226 758 
Q 1494 397 1959 397 
Q 2419 397 2687 759 
Q 2956 1122 2956 1747 
Q 2956 2369 2687 2733 
Q 2419 3097 1959 3097 
z
M 1959 3584 
Q 2709 3584 3137 3096 
Q 3566 2609 3566 1747 
Q 3566 888 3137 398 
Q 2709 -91 1959 -91 
Q 1206 -91 779 398 
Q 353 888 353 1747 
Q 353 2609 779 3096 
Q 1206 3584 1959 3584 
z
" transform="scale(0.015625)"/>
       <path id="DejaVuSans-6c" d="M 603 4863 
L 1178 4863 
L 1178 0 
L 603 0 
L 603 4863 
z
" transform="scale(0.015625)"/>
       <path id="DejaVuSans-79" d="M 2059 -325 
Q 1816 -950 1584 -1140 
Q 1353 -1331 966 -1331 
L 506 -1331 
L 506 -850 
L 844 -850 
Q 1081 -850 1212 -737 
Q 1344 -625 1503 -206 
L 1606 56 
L 191 3500 
L 800 3500 
L 1894 763 
L 2988 3500 
L 3597 3500 
L 2059 -325 
z
" transform="scale(0.015625)"/>
       <path id="DejaVuSans-70" d="M 1159 525 
L 1159 -1331 
L 581 -1331 
L 581 3500 
L 1159 3500 
L 1159 2969 
Q 1341 3281 1617 3432 
Q 1894 3584 2278 3584 
Q 2916 3584 3314 3078 
Q 3713 2572 3713 1747 
Q 3713 922 3314 415 
Q 2916 -91 2278 -91 
Q 1894 -91 1617 61 
Q 1341 213 1159 525 
z
M 3116 1747 
Q 3116 2381 2855 2742 
Q 2594 3103 2138 3103 
Q 1681 3103 1420 2742 
Q 1159 2381 1159 1747 
Q 1159 1113 1420 752 
Q 1681 391 2138 391 
Q 2594 391 2855 752 
Q 3116 1113 3116 1747 
z
" transform="scale(0.015625)"/>
       <path id="DejaVuSans-64" d="M 2906 2969 
L 2906 4863 
L 3481 4863 
L 3481 0 
L 2906 0 
L 2906 525 
Q 2725 213 2448 61 
Q 2172 -91 1784 -91 
Q 1150 -91 751 415 
Q 353 922 353 1747 
Q 353 2572 751 3078 
Q 1150 3584 1784 3584 
Q 2172 3584 2448 3432 
Q 2725 3281 2906 2969 
z
M 947 1747 
Q 947 1113 1208 752 
Q 1469 391 1925 391 
Q 2381 391 2643 752 
Q 2906 1113 2906 1747 
Q 2906 2381 2643 2742 
Q 2381 3103 1925 3103 
Q 1469 3103 1208 2742 
Q 947 2381 947 1747 
z
" transform="scale(0.015625)"/>
       <path id="DejaVuSans-69" d="M 603 3500 
L 1178 3500 
L 1178 0 
L 603 0 
L 603 3500 
z
M 603 4863 
L 1178 4863 
L 1178 4134 
L 603 4134 
L 603 4863 
z
" transform="scale(0.015625)"/>
       <path id="DejaVuSans-61" d="M 2194 1759 
Q 1497 1759 1228 1600 
Q 959 1441 959 1056 
Q 959 750 1161 570 
Q 1363 391 1709 391 
Q 2188 391 2477 730 
Q 2766 1069 2766 1631 
L 2766 1759 
L 2194 1759 
z
M 3341 1997 
L 3341 0 
L 2766 0 
L 2766 531 
Q 2569 213 2275 61 
Q 1981 -91 1556 -91 
Q 1019 -91 701 211 
Q 384 513 384 1019 
Q 384 1609 779 1909 
Q 1175 2209 1959 2209 
L 2766 2209 
L 2766 2266 
Q 2766 2663 2505 2880 
Q 2244 3097 1772 3097 
Q 1472 3097 1187 3025 
Q 903 2953 641 2809 
L 641 3341 
Q 956 3463 1253 3523 
Q 1550 3584 1831 3584 
Q 2591 3584 2966 3190 
Q 3341 2797 3341 1997 
z
" transform="scale(0.015625)"/>
       <path id="DejaVuSans-65" d="M 3597 1894 
L 3597 1613 
L 953 1613 
Q 991 1019 1311 708 
Q 1631 397 2203 397 
Q 2534 397 2845 478 
Q 3156 559 3463 722 
L 3463 178 
Q 3153 47 2828 -22 
Q 2503 -91 2169 -91 
Q 1331 -91 842 396 
Q 353 884 353 1716 
Q 353 2575 817 3079 
Q 1281 3584 2069 3584 
Q 2775 3584 3186 3129 
Q 3597 2675 3597 1894 
z
M 3022 2063 
Q 3016 2534 2758 2815 
Q 2500 3097 2075 3097 
Q 1594 3097 1305 2825 
Q 1016 2553 972 2059 
L 3022 2063 
z
" transform="scale(0.015625)"/>
       <path id="DejaVuSans-73" d="M 2834 3397 
L 2834 2853 
Q 2591 2978 2328 3040 
Q 2066 3103 1784 3103 
Q 1356 3103 1142 2972 
Q 928 2841 928 2578 
Q 928 2378 1081 2264 
Q 1234 2150 1697 2047 
L 1894 2003 
Q 2506 1872 2764 1633 
Q 3022 1394 3022 966 
Q 3022 478 2636 193 
Q 2250 -91 1575 -91 
Q 1294 -91 989 -36 
Q 684 19 347 128 
L 347 722 
Q 666 556 975 473 
Q 1284 391 1588 391 
Q 1994 391 2212 530 
Q 2431 669 2431 922 
Q 2431 1156 2273 1281 
Q 2116 1406 1581 1522 
L 1381 1569 
Q 847 1681 609 1914 
Q 372 2147 372 2553 
Q 372 3047 722 3315 
Q 1072 3584 1716 3584 
Q 2034 3584 2315 3537 
Q 2597 3491 2834 3397 
z
" transform="scale(0.015625)"/>
       <path id="DejaVuSans-5f" d="M 3263 -1063 
L 3263 -1509 
L -63 -1509 
L -63 -1063 
L 3263 -1063 
z
" transform="scale(0.015625)"/>
       <path id="DejaVuSans-67" d="M 2906 1791 
Q 2906 2416 2648 2759 
Q 2391 3103 1925 3103 
Q 1463 3103 1205 2759 
Q 947 2416 947 1791 
Q 947 1169 1205 825 
Q 1463 481 1925 481 
Q 2391 481 2648 825 
Q 2906 1169 2906 1791 
z
M 3481 434 
Q 3481 -459 3084 -895 
Q 2688 -1331 1869 -1331 
Q 1566 -1331 1297 -1286 
Q 1028 -1241 775 -1147 
L 775 -588 
Q 1028 -725 1275 -790 
Q 1522 -856 1778 -856 
Q 2344 -856 2625 -561 
Q 2906 -266 2906 331 
L 2906 616 
Q 2728 306 2450 153 
Q 2172 0 1784 0 
Q 1141 0 747 490 
Q 353 981 353 1791 
Q 353 2603 747 3093 
Q 1141 3584 1784 3584 
Q 2172 3584 2450 3431 
Q 2728 3278 2906 2969 
L 2906 3500 
L 3481 3500 
L 3481 434 
z
" transform="scale(0.015625)"/>
       <path id="DejaVuSans-6d" d="M 3328 2828 
Q 3544 3216 3844 3400 
Q 4144 3584 4550 3584 
Q 5097 3584 5394 3201 
Q 5691 2819 5691 2113 
L 5691 0 
L 5113 0 
L 5113 2094 
Q 5113 2597 4934 2840 
Q 4756 3084 4391 3084 
Q 3944 3084 3684 2787 
Q 3425 2491 3425 1978 
L 3425 0 
L 2847 0 
L 2847 2094 
Q 2847 2600 2669 2842 
Q 2491 3084 2119 3084 
Q 1678 3084 1418 2786 
Q 1159 2488 1159 1978 
L 1159 0 
L 581 0 
L 581 3500 
L 1159 3500 
L 1159 2956 
Q 1356 3278 1631 3431 
Q 1906 3584 2284 3584 
Q 2666 3584 2933 3390 
Q 3200 3197 3328 2828 
z
" transform="scale(0.015625)"/>
      </defs>
      <use xlink:href="#DejaVuSans-50"/>
      <use xlink:href="#DejaVuSans-6f" x="56.677734"/>
      <use xlink:href="#DejaVuSans-6c" x="117.859375"/>
      <use xlink:href="#DejaVuSans-79" x="145.642578"/>
      <use xlink:href="#DejaVuSans-70" x="204.822266"/>
      <use xlink:href="#DejaVuSans-6f" x="268.298828"/>
      <use xlink:href="#DejaVuSans-64" x="329.480469"/>
      <use xlink:href="#DejaVuSans-69" x="392.957031"/>
      <use xlink:href="#DejaVuSans-61" x="420.740234"/>
      <use xlink:href="#DejaVuSans-6c" x="482.019531"/>
      <use xlink:href="#DejaVuSans-65" x="509.802734"/>
      <use xlink:href="#DejaVuSans-73" x="571.326172"/>
      <use xlink:href="#DejaVuSans-5f" x="623.425781"/>
      <use xlink:href="#DejaVuSans-73" x="673.425781"/>
      <use xlink:href="#DejaVuSans-69" x="725.525391"/>
      <use xlink:href="#DejaVuSans-67" x="753.308594"/>
      <use xlink:href="#DejaVuSans-6d" x="816.785156"/>
      <use xlink:href="#DejaVuSans-61" x="914.197266"/>
      <use xlink:href="#DejaVuSans-32" x="975.476562"/>
     </g>
    </g>
   </g>
   <g id="matplotlib.axis_2">
    <g id="ytick_1">
     <g id="line2d_7">
      <defs>
       <path id="m99604b93b1" d="M 0 0 
L -3.5 0 
" style="stroke: #000000; stroke-width: 0.8"/>
      </defs>
      <g>
       <use xlink:href="#m99604b93b1" x="44.57" y="389.93875" style="stroke: #000000; stroke-width: 0.8"/>
      </g>
     </g>
     <g id="text_8">
      <!-- 0 -->
      <g transform="translate(31.2075 393.737969) scale(0.1 -0.1)">
       <use xlink:href="#DejaVuSans-30"/>
      </g>
     </g>
    </g>
    <g id="ytick_2">
     <g id="line2d_8">
      <g>
       <use xlink:href="#m99604b93b1" x="44.57" y="331.111369" style="stroke: #000000; stroke-width: 0.8"/>
      </g>
     </g>
     <g id="text_9">
      <!-- 5 -->
      <g transform="translate(31.2075 334.910588) scale(0.1 -0.1)">
       <use xlink:href="#DejaVuSans-35"/>
      </g>
     </g>
    </g>
    <g id="ytick_3">
     <g id="line2d_9">
      <g>
       <use xlink:href="#m99604b93b1" x="44.57" y="272.283988" style="stroke: #000000; stroke-width: 0.8"/>
      </g>
     </g>
     <g id="text_10">
      <!-- 10 -->
      <g transform="translate(24.845 276.083207) scale(0.1 -0.1)">
       <use xlink:href="#DejaVuSans-31"/>
       <use xlink:href="#DejaVuSans-30" x="63.623047"/>
      </g>
     </g>
    </g>
    <g id="ytick_4">
     <g id="line2d_10">
      <g>
       <use xlink:href="#m99604b93b1" x="44.57" y="213.456607" style="stroke: #000000; stroke-width: 0.8"/>
      </g>
     </g>
     <g id="text_11">
      <!-- 15 -->
      <g transform="translate(24.845 217.255826) scale(0.1 -0.1)">
       <use xlink:href="#DejaVuSans-31"/>
       <use xlink:href="#DejaVuSans-35" x="63.623047"/>
      </g>
     </g>
    </g>
    <g id="ytick_5">
     <g id="line2d_11">
      <g>
       <use xlink:href="#m99604b93b1" x="44.57" y="154.629226" style="stroke: #000000; stroke-width: 0.8"/>
      </g>
     </g>
     <g id="text_12">
      <!-- 20 -->
      <g transform="translate(24.845 158.428445) scale(0.1 -0.1)">
       <use xlink:href="#DejaVuSans-32"/>
       <use xlink:href="#DejaVuSans-30" x="63.623047"/>
      </g>
     </g>
    </g>
    <g id="ytick_6">
     <g id="line2d_12">
      <g>
       <use xlink:href="#m99604b93b1" x="44.57" y="95.801845" style="stroke: #000000; stroke-width: 0.8"/>
      </g>
     </g>
     <g id="text_13">
      <!-- 25 -->
      <g transform="translate(24.845 99.601064) scale(0.1 -0.1)">
       <use xlink:href="#DejaVuSans-32"/>
       <use xlink:href="#DejaVuSans-35" x="63.623047"/>
      </g>
     </g>
    </g>
    <g id="ytick_7">
     <g id="line2d_13">
      <g>
       <use xlink:href="#m99604b93b1" x="44.57" y="36.974464" style="stroke: #000000; stroke-width: 0.8"/>
      </g>
     </g>
     <g id="text_14">
      <!-- 30 -->
      <g transform="translate(24.845 40.773683) scale(0.1 -0.1)">
       <use xlink:href="#DejaVuSans-33"/>
       <use xlink:href="#DejaVuSans-30" x="63.623047"/>
      </g>
     </g>
    </g>
    <g id="text_15">
     <!-- Number of samples -->
     <g transform="translate(18.765312 259.676562) rotate(-90) scale(0.1 -0.1)">
      <defs>
       <path id="DejaVuSans-4e" d="M 628 4666 
L 1478 4666 
L 3547 763 
L 3547 4666 
L 4159 4666 
L 4159 0 
L 3309 0 
L 1241 3903 
L 1241 0 
L 628 0 
L 628 4666 
z
" transform="scale(0.015625)"/>
       <path id="DejaVuSans-75" d="M 544 1381 
L 544 3500 
L 1119 3500 
L 1119 1403 
Q 1119 906 1312 657 
Q 1506 409 1894 409 
Q 2359 409 2629 706 
Q 2900 1003 2900 1516 
L 2900 3500 
L 3475 3500 
L 3475 0 
L 2900 0 
L 2900 538 
Q 2691 219 2414 64 
Q 2138 -91 1772 -91 
Q 1169 -91 856 284 
Q 544 659 544 1381 
z
M 1991 3584 
L 1991 3584 
z
" transform="scale(0.015625)"/>
       <path id="DejaVuSans-62" d="M 3116 1747 
Q 3116 2381 2855 2742 
Q 2594 3103 2138 3103 
Q 1681 3103 1420 2742 
Q 1159 2381 1159 1747 
Q 1159 1113 1420 752 
Q 1681 391 2138 391 
Q 2594 391 2855 752 
Q 3116 1113 3116 1747 
z
M 1159 2969 
Q 1341 3281 1617 3432 
Q 1894 3584 2278 3584 
Q 2916 3584 3314 3078 
Q 3713 2572 3713 1747 
Q 3713 922 3314 415 
Q 2916 -91 2278 -91 
Q 1894 -91 1617 61 
Q 1341 213 1159 525 
L 1159 0 
L 581 0 
L 581 4863 
L 1159 4863 
L 1159 2969 
z
" transform="scale(0.015625)"/>
       <path id="DejaVuSans-72" d="M 2631 2963 
Q 2534 3019 2420 3045 
Q 2306 3072 2169 3072 
Q 1681 3072 1420 2755 
Q 1159 2438 1159 1844 
L 1159 0 
L 581 0 
L 581 3500 
L 1159 3500 
L 1159 2956 
Q 1341 3275 1631 3429 
Q 1922 3584 2338 3584 
Q 2397 3584 2469 3576 
Q 2541 3569 2628 3553 
L 2631 2963 
z
" transform="scale(0.015625)"/>
       <path id="DejaVuSans-20" transform="scale(0.015625)"/>
       <path id="DejaVuSans-66" d="M 2375 4863 
L 2375 4384 
L 1825 4384 
Q 1516 4384 1395 4259 
Q 1275 4134 1275 3809 
L 1275 3500 
L 2222 3500 
L 2222 3053 
L 1275 3053 
L 1275 0 
L 697 0 
L 697 3053 
L 147 3053 
L 147 3500 
L 697 3500 
L 697 3744 
Q 697 4328 969 4595 
Q 1241 4863 1831 4863 
L 2375 4863 
z
" transform="scale(0.015625)"/>
      </defs>
      <use xlink:href="#DejaVuSans-4e"/>
      <use xlink:href="#DejaVuSans-75" x="74.804688"/>
      <use xlink:href="#DejaVuSans-6d" x="138.183594"/>
      <use xlink:href="#DejaVuSans-62" x="235.595703"/>
      <use xlink:href="#DejaVuSans-65" x="299.072266"/>
      <use xlink:href="#DejaVuSans-72" x="360.595703"/>
      <use xlink:href="#DejaVuSans-20" x="401.708984"/>
      <use xlink:href="#DejaVuSans-6f" x="433.496094"/>
      <use xlink:href="#DejaVuSans-66" x="494.677734"/>
      <use xlink:href="#DejaVuSans-20" x="529.882812"/>
      <use xlink:href="#DejaVuSans-73" x="561.669922"/>
      <use xlink:href="#DejaVuSans-61" x="613.769531"/>
      <use xlink:href="#DejaVuSans-6d" x="675.048828"/>
      <use xlink:href="#DejaVuSans-70" x="772.460938"/>
      <use xlink:href="#DejaVuSans-6c" x="835.9375"/>
      <use xlink:href="#DejaVuSans-65" x="863.720703"/>
      <use xlink:href="#DejaVuSans-73" x="925.244141"/>
     </g>
    </g>
   </g>
   <g id="line2d_14">
    <path d="M 65.207727 381.986658 
L 67.689218 380.312369 
L 70.170708 378.360902 
L 72.652198 376.107758 
L 75.133688 373.531912 
L 77.615179 370.61715 
L 80.096669 367.353268 
L 82.578159 363.736976 
L 85.059649 359.772407 
L 87.54114 355.471121 
L 90.849793 349.245032 
L 94.158447 342.512881 
L 98.294264 333.494012 
L 102.430081 323.937963 
L 107.393062 311.938744 
L 113.183206 297.3974 
L 119.800513 280.213477 
L 128.072147 258.053791 
L 140.479598 224.668098 
L 145.442579 212.048263 
L 149.578396 202.215618 
L 152.88705 194.928835 
L 156.195703 188.244479 
L 158.677193 183.666421 
L 161.158684 179.485849 
L 163.640174 175.719078 
L 166.121664 172.377253 
L 168.603154 169.466565 
L 171.084645 166.988563 
L 173.566135 164.940498 
L 175.220462 163.810823 
L 176.874789 162.86644 
L 178.529116 162.103776 
L 180.183442 161.518604 
L 181.837769 161.106064 
L 183.492096 160.860682 
L 185.146423 160.77638 
L 186.80075 160.846487 
L 189.28224 161.225141 
L 191.76373 161.90792 
L 194.24522 162.865353 
L 196.726711 164.065719 
L 199.208201 165.475648 
L 202.516855 167.622481 
L 206.652672 170.623623 
L 212.442816 175.174014 
L 222.368777 183.326319 
L 228.986084 189.008342 
L 233.121901 192.819704 
L 237.257718 196.963841 
L 240.566372 200.591169 
L 243.875026 204.544802 
L 247.183679 208.85554 
L 250.492333 213.538365 
L 253.800987 218.59231 
L 257.10964 224.002067 
L 261.245457 231.223048 
L 265.381274 238.888964 
L 270.344255 248.566273 
L 276.134399 260.344839 
L 286.06036 281.161627 
L 294.331994 298.315036 
L 299.294974 308.089934 
L 303.430792 315.728102 
L 306.739445 321.415708 
L 310.048099 326.673221 
L 313.356753 331.469988 
L 316.665406 335.796848 
L 319.97406 339.666548 
L 323.282714 343.111333 
L 326.591367 346.178019 
L 329.900021 348.921329 
L 333.208675 351.396613 
L 337.344492 354.187825 
L 341.480309 356.707299 
L 345.616126 358.992456 
L 349.751943 361.050534 
L 353.88776 362.870378 
L 358.023577 364.438701 
L 362.159394 365.755783 
L 366.295211 366.846087 
L 371.258192 367.92908 
L 386.147133 370.975405 
L 391.110114 372.292383 
L 396.073094 373.822137 
L 402.690402 376.104646 
L 415.925016 380.730208 
L 421.71516 382.490099 
L 427.505304 384.009975 
L 433.295448 385.294295 
L 439.912756 386.508114 
L 446.530063 387.492098 
L 453.974534 388.360013 
L 461.419004 388.997066 
L 469.690639 389.463895 
L 477.962273 389.728703 
L 477.962273 389.728703 
" clip-path="url(#p5a792a12ac)" style="fill: none; stroke: #000000; stroke-opacity: 0.8; stroke-linecap: square"/>
   </g>
   <g id="line2d_15">
    <path d="M 211.485187 389.93875 
L 211.485187 31.68 
" clip-path="url(#p5a792a12ac)" style="fill: none; stroke-dasharray: 1,1.65; stroke-dashoffset: 0; stroke: #000000; stroke-opacity: 0.8"/>
   </g>
   <g id="line2d_16">
    <path d="M 204.234208 389.93875 
L 204.234208 31.68 
" clip-path="url(#p5a792a12ac)" style="fill: none; stroke-dasharray: 3.7,1.6; stroke-dashoffset: 0; stroke: #000000; stroke-opacity: 0.8"/>
   </g>
   <g id="line2d_17">
    <path d="M 185.146423 389.93875 
L 185.146423 31.68 
" clip-path="url(#p5a792a12ac)" style="fill: none; stroke: #000000; stroke-opacity: 0.8; stroke-linecap: square"/>
   </g>
   <g id="line2d_18">
    <path d="M 113.430985 389.93875 
L 113.430985 31.68 
" clip-path="url(#p5a792a12ac)" style="fill: none; stroke-dasharray: 6.4,1.6,1,1.6; stroke-dashoffset: 0; stroke: #000000; stroke-opacity: 0.8"/>
   </g>
   <g id="line2d_19">
    <path d="M 334.702868 389.93875 
L 334.702868 31.68 
" clip-path="url(#p5a792a12ac)" style="fill: none; stroke-dasharray: 6.4,1.6,1,1.6; stroke-dashoffset: 0; stroke: #000000; stroke-opacity: 0.8"/>
   </g>
   <g id="line2d_20">
    <path d="M 106.258522 389.93875 
L 106.258522 31.68 
" clip-path="url(#p5a792a12ac)" style="fill: none; stroke-dasharray: 3,1,1,1; stroke-dashoffset: 0; stroke: #000000; stroke-opacity: 0.8"/>
   </g>
   <g id="line2d_21">
    <path d="M 299.83939 389.93875 
L 299.83939 31.68 
" clip-path="url(#p5a792a12ac)" style="fill: none; stroke-dasharray: 3,1,1,1; stroke-dashoffset: 0; stroke: #000000; stroke-opacity: 0.8"/>
   </g>
   <g id="line2d_22"/>
   <g id="line2d_23"/>
   <g id="patch_52">
    <path d="M 44.57 389.93875 
L 44.57 31.68 
" style="fill: none; stroke: #000000; stroke-width: 0.8; stroke-linejoin: miter; stroke-linecap: square"/>
   </g>
   <g id="patch_53">
    <path d="M 498.6 389.93875 
L 498.6 31.68 
" style="fill: none; stroke: #000000; stroke-width: 0.8; stroke-linejoin: miter; stroke-linecap: square"/>
   </g>
   <g id="patch_54">
    <path d="M 44.57 389.93875 
L 498.6 389.93875 
" style="fill: none; stroke: #000000; stroke-width: 0.8; stroke-linejoin: miter; stroke-linecap: square"/>
   </g>
   <g id="patch_55">
    <path d="M 44.57 31.68 
L 498.6 31.68 
" style="fill: none; stroke: #000000; stroke-width: 0.8; stroke-linejoin: miter; stroke-linecap: square"/>
   </g>
   <g id="legend_1">
    <g id="patch_56">
     <path d="M 320.942187 48.278437 
L 340.942187 48.278437 
L 340.942187 41.278437 
L 320.942187 41.278437 
z
" style="fill: #808080; opacity: 0.8"/>
    </g>
    <g id="text_16">
     <!-- Posterior samples -->
     <g transform="translate(348.942187 48.278437) scale(0.1 -0.1)">
      <defs>
       <path id="DejaVuSans-74" d="M 1172 4494 
L 1172 3500 
L 2356 3500 
L 2356 3053 
L 1172 3053 
L 1172 1153 
Q 1172 725 1289 603 
Q 1406 481 1766 481 
L 2356 481 
L 2356 0 
L 1766 0 
Q 1100 0 847 248 
Q 594 497 594 1153 
L 594 3053 
L 172 3053 
L 172 3500 
L 594 3500 
L 594 4494 
L 1172 4494 
z
" transform="scale(0.015625)"/>
      </defs>
      <use xlink:href="#DejaVuSans-50"/>
      <use xlink:href="#DejaVuSans-6f" x="56.677734"/>
      <use xlink:href="#DejaVuSans-73" x="117.859375"/>
      <use xlink:href="#DejaVuSans-74" x="169.958984"/>
      <use xlink:href="#DejaVuSans-65" x="209.167969"/>
      <use xlink:href="#DejaVuSans-72" x="270.691406"/>
      <use xlink:href="#DejaVuSans-69" x="311.804688"/>
      <use xlink:href="#DejaVuSans-6f" x="339.587891"/>
      <use xlink:href="#DejaVuSans-72" x="400.769531"/>
      <use xlink:href="#DejaVuSans-20" x="441.882812"/>
      <use xlink:href="#DejaVuSans-73" x="473.669922"/>
      <use xlink:href="#DejaVuSans-61" x="525.769531"/>
      <use xlink:href="#DejaVuSans-6d" x="587.048828"/>
      <use xlink:href="#DejaVuSans-70" x="684.460938"/>
      <use xlink:href="#DejaVuSans-6c" x="747.9375"/>
      <use xlink:href="#DejaVuSans-65" x="775.720703"/>
      <use xlink:href="#DejaVuSans-73" x="837.244141"/>
     </g>
    </g>
    <g id="line2d_24">
     <path d="M 320.942187 59.456563 
L 330.942187 59.456563 
L 340.942187 59.456563 
" style="fill: none; stroke: #000000; stroke-opacity: 0.8; stroke-linecap: square"/>
    </g>
    <g id="text_17">
     <!-- KDE curve -->
     <g transform="translate(348.942187 62.956563) scale(0.1 -0.1)">
      <defs>
       <path id="DejaVuSans-4b" d="M 628 4666 
L 1259 4666 
L 1259 2694 
L 3353 4666 
L 4166 4666 
L 1850 2491 
L 4331 0 
L 3500 0 
L 1259 2247 
L 1259 0 
L 628 0 
L 628 4666 
z
" transform="scale(0.015625)"/>
       <path id="DejaVuSans-44" d="M 1259 4147 
L 1259 519 
L 2022 519 
Q 2988 519 3436 956 
Q 3884 1394 3884 2338 
Q 3884 3275 3436 3711 
Q 2988 4147 2022 4147 
L 1259 4147 
z
M 628 4666 
L 1925 4666 
Q 3281 4666 3915 4102 
Q 4550 3538 4550 2338 
Q 4550 1131 3912 565 
Q 3275 0 1925 0 
L 628 0 
L 628 4666 
z
" transform="scale(0.015625)"/>
       <path id="DejaVuSans-45" d="M 628 4666 
L 3578 4666 
L 3578 4134 
L 1259 4134 
L 1259 2753 
L 3481 2753 
L 3481 2222 
L 1259 2222 
L 1259 531 
L 3634 531 
L 3634 0 
L 628 0 
L 628 4666 
z
" transform="scale(0.015625)"/>
       <path id="DejaVuSans-63" d="M 3122 3366 
L 3122 2828 
Q 2878 2963 2633 3030 
Q 2388 3097 2138 3097 
Q 1578 3097 1268 2742 
Q 959 2388 959 1747 
Q 959 1106 1268 751 
Q 1578 397 2138 397 
Q 2388 397 2633 464 
Q 2878 531 3122 666 
L 3122 134 
Q 2881 22 2623 -34 
Q 2366 -91 2075 -91 
Q 1284 -91 818 406 
Q 353 903 353 1747 
Q 353 2603 823 3093 
Q 1294 3584 2113 3584 
Q 2378 3584 2631 3529 
Q 2884 3475 3122 3366 
z
" transform="scale(0.015625)"/>
       <path id="DejaVuSans-76" d="M 191 3500 
L 800 3500 
L 1894 563 
L 2988 3500 
L 3597 3500 
L 2284 0 
L 1503 0 
L 191 3500 
z
" transform="scale(0.015625)"/>
      </defs>
      <use xlink:href="#DejaVuSans-4b"/>
      <use xlink:href="#DejaVuSans-44" x="65.576172"/>
      <use xlink:href="#DejaVuSans-45" x="142.578125"/>
      <use xlink:href="#DejaVuSans-20" x="205.761719"/>
      <use xlink:href="#DejaVuSans-63" x="237.548828"/>
      <use xlink:href="#DejaVuSans-75" x="292.529297"/>
      <use xlink:href="#DejaVuSans-72" x="355.908203"/>
      <use xlink:href="#DejaVuSans-76" x="397.021484"/>
      <use xlink:href="#DejaVuSans-65" x="456.201172"/>
     </g>
    </g>
    <g id="line2d_25">
     <path d="M 320.942187 74.134688 
L 330.942187 74.134688 
L 340.942187 74.134688 
" style="fill: none; stroke-dasharray: 1,1.65; stroke-dashoffset: 0; stroke: #000000; stroke-opacity: 0.8"/>
    </g>
    <g id="text_18">
     <!-- Mean: 13877.64 -->
     <g transform="translate(348.942187 77.634688) scale(0.1 -0.1)">
      <defs>
       <path id="DejaVuSans-4d" d="M 628 4666 
L 1569 4666 
L 2759 1491 
L 3956 4666 
L 4897 4666 
L 4897 0 
L 4281 0 
L 4281 4097 
L 3078 897 
L 2444 897 
L 1241 4097 
L 1241 0 
L 628 0 
L 628 4666 
z
" transform="scale(0.015625)"/>
       <path id="DejaVuSans-6e" d="M 3513 2113 
L 3513 0 
L 2938 0 
L 2938 2094 
Q 2938 2591 2744 2837 
Q 2550 3084 2163 3084 
Q 1697 3084 1428 2787 
Q 1159 2491 1159 1978 
L 1159 0 
L 581 0 
L 581 3500 
L 1159 3500 
L 1159 2956 
Q 1366 3272 1645 3428 
Q 1925 3584 2291 3584 
Q 2894 3584 3203 3211 
Q 3513 2838 3513 2113 
z
" transform="scale(0.015625)"/>
       <path id="DejaVuSans-3a" d="M 750 794 
L 1409 794 
L 1409 0 
L 750 0 
L 750 794 
z
M 750 3309 
L 1409 3309 
L 1409 2516 
L 750 2516 
L 750 3309 
z
" transform="scale(0.015625)"/>
       <path id="DejaVuSans-38" d="M 2034 2216 
Q 1584 2216 1326 1975 
Q 1069 1734 1069 1313 
Q 1069 891 1326 650 
Q 1584 409 2034 409 
Q 2484 409 2743 651 
Q 3003 894 3003 1313 
Q 3003 1734 2745 1975 
Q 2488 2216 2034 2216 
z
M 1403 2484 
Q 997 2584 770 2862 
Q 544 3141 544 3541 
Q 544 4100 942 4425 
Q 1341 4750 2034 4750 
Q 2731 4750 3128 4425 
Q 3525 4100 3525 3541 
Q 3525 3141 3298 2862 
Q 3072 2584 2669 2484 
Q 3125 2378 3379 2068 
Q 3634 1759 3634 1313 
Q 3634 634 3220 271 
Q 2806 -91 2034 -91 
Q 1263 -91 848 271 
Q 434 634 434 1313 
Q 434 1759 690 2068 
Q 947 2378 1403 2484 
z
M 1172 3481 
Q 1172 3119 1398 2916 
Q 1625 2713 2034 2713 
Q 2441 2713 2670 2916 
Q 2900 3119 2900 3481 
Q 2900 3844 2670 4047 
Q 2441 4250 2034 4250 
Q 1625 4250 1398 4047 
Q 1172 3844 1172 3481 
z
" transform="scale(0.015625)"/>
       <path id="DejaVuSans-37" d="M 525 4666 
L 3525 4666 
L 3525 4397 
L 1831 0 
L 1172 0 
L 2766 4134 
L 525 4134 
L 525 4666 
z
" transform="scale(0.015625)"/>
       <path id="DejaVuSans-2e" d="M 684 794 
L 1344 794 
L 1344 0 
L 684 0 
L 684 794 
z
" transform="scale(0.015625)"/>
       <path id="DejaVuSans-36" d="M 2113 2584 
Q 1688 2584 1439 2293 
Q 1191 2003 1191 1497 
Q 1191 994 1439 701 
Q 1688 409 2113 409 
Q 2538 409 2786 701 
Q 3034 994 3034 1497 
Q 3034 2003 2786 2293 
Q 2538 2584 2113 2584 
z
M 3366 4563 
L 3366 3988 
Q 3128 4100 2886 4159 
Q 2644 4219 2406 4219 
Q 1781 4219 1451 3797 
Q 1122 3375 1075 2522 
Q 1259 2794 1537 2939 
Q 1816 3084 2150 3084 
Q 2853 3084 3261 2657 
Q 3669 2231 3669 1497 
Q 3669 778 3244 343 
Q 2819 -91 2113 -91 
Q 1303 -91 875 529 
Q 447 1150 447 2328 
Q 447 3434 972 4092 
Q 1497 4750 2381 4750 
Q 2619 4750 2861 4703 
Q 3103 4656 3366 4563 
z
" transform="scale(0.015625)"/>
       <path id="DejaVuSans-34" d="M 2419 4116 
L 825 1625 
L 2419 1625 
L 2419 4116 
z
M 2253 4666 
L 3047 4666 
L 3047 1625 
L 3713 1625 
L 3713 1100 
L 3047 1100 
L 3047 0 
L 2419 0 
L 2419 1100 
L 313 1100 
L 313 1709 
L 2253 4666 
z
" transform="scale(0.015625)"/>
      </defs>
      <use xlink:href="#DejaVuSans-4d"/>
      <use xlink:href="#DejaVuSans-65" x="86.279297"/>
      <use xlink:href="#DejaVuSans-61" x="147.802734"/>
      <use xlink:href="#DejaVuSans-6e" x="209.082031"/>
      <use xlink:href="#DejaVuSans-3a" x="272.460938"/>
      <use xlink:href="#DejaVuSans-20" x="306.152344"/>
      <use xlink:href="#DejaVuSans-31" x="337.939453"/>
      <use xlink:href="#DejaVuSans-33" x="401.5625"/>
      <use xlink:href="#DejaVuSans-38" x="465.185547"/>
      <use xlink:href="#DejaVuSans-37" x="528.808594"/>
      <use xlink:href="#DejaVuSans-37" x="592.431641"/>
      <use xlink:href="#DejaVuSans-2e" x="656.054688"/>
      <use xlink:href="#DejaVuSans-36" x="687.841797"/>
      <use xlink:href="#DejaVuSans-34" x="751.464844"/>
     </g>
    </g>
    <g id="line2d_26">
     <path d="M 320.942187 88.812813 
L 330.942187 88.812813 
L 340.942187 88.812813 
" style="fill: none; stroke-dasharray: 3.7,1.6; stroke-dashoffset: 0; stroke: #000000; stroke-opacity: 0.8"/>
    </g>
    <g id="text_19">
     <!-- Median: 13419.06 -->
     <g transform="translate(348.942187 92.312813) scale(0.1 -0.1)">
      <defs>
       <path id="DejaVuSans-39" d="M 703 97 
L 703 672 
Q 941 559 1184 500 
Q 1428 441 1663 441 
Q 2288 441 2617 861 
Q 2947 1281 2994 2138 
Q 2813 1869 2534 1725 
Q 2256 1581 1919 1581 
Q 1219 1581 811 2004 
Q 403 2428 403 3163 
Q 403 3881 828 4315 
Q 1253 4750 1959 4750 
Q 2769 4750 3195 4129 
Q 3622 3509 3622 2328 
Q 3622 1225 3098 567 
Q 2575 -91 1691 -91 
Q 1453 -91 1209 -44 
Q 966 3 703 97 
z
M 1959 2075 
Q 2384 2075 2632 2365 
Q 2881 2656 2881 3163 
Q 2881 3666 2632 3958 
Q 2384 4250 1959 4250 
Q 1534 4250 1286 3958 
Q 1038 3666 1038 3163 
Q 1038 2656 1286 2365 
Q 1534 2075 1959 2075 
z
" transform="scale(0.015625)"/>
      </defs>
      <use xlink:href="#DejaVuSans-4d"/>
      <use xlink:href="#DejaVuSans-65" x="86.279297"/>
      <use xlink:href="#DejaVuSans-64" x="147.802734"/>
      <use xlink:href="#DejaVuSans-69" x="211.279297"/>
      <use xlink:href="#DejaVuSans-61" x="239.0625"/>
      <use xlink:href="#DejaVuSans-6e" x="300.341797"/>
      <use xlink:href="#DejaVuSans-3a" x="363.720703"/>
      <use xlink:href="#DejaVuSans-20" x="397.412109"/>
      <use xlink:href="#DejaVuSans-31" x="429.199219"/>
      <use xlink:href="#DejaVuSans-33" x="492.822266"/>
      <use xlink:href="#DejaVuSans-34" x="556.445312"/>
      <use xlink:href="#DejaVuSans-31" x="620.068359"/>
      <use xlink:href="#DejaVuSans-39" x="683.691406"/>
      <use xlink:href="#DejaVuSans-2e" x="747.314453"/>
      <use xlink:href="#DejaVuSans-30" x="779.101562"/>
      <use xlink:href="#DejaVuSans-36" x="842.724609"/>
     </g>
    </g>
    <g id="line2d_27">
     <path d="M 320.942187 103.490938 
L 330.942187 103.490938 
L 340.942187 103.490938 
" style="fill: none; stroke: #000000; stroke-opacity: 0.8; stroke-linecap: square"/>
    </g>
    <g id="text_20">
     <!-- Mode: 12211.88 -->
     <g transform="translate(348.942187 106.990938) scale(0.1 -0.1)">
      <use xlink:href="#DejaVuSans-4d"/>
      <use xlink:href="#DejaVuSans-6f" x="86.279297"/>
      <use xlink:href="#DejaVuSans-64" x="147.460938"/>
      <use xlink:href="#DejaVuSans-65" x="210.9375"/>
      <use xlink:href="#DejaVuSans-3a" x="272.460938"/>
      <use xlink:href="#DejaVuSans-20" x="306.152344"/>
      <use xlink:href="#DejaVuSans-31" x="337.939453"/>
      <use xlink:href="#DejaVuSans-32" x="401.5625"/>
      <use xlink:href="#DejaVuSans-32" x="465.185547"/>
      <use xlink:href="#DejaVuSans-31" x="528.808594"/>
      <use xlink:href="#DejaVuSans-31" x="592.431641"/>
      <use xlink:href="#DejaVuSans-2e" x="656.054688"/>
      <use xlink:href="#DejaVuSans-38" x="687.841797"/>
      <use xlink:href="#DejaVuSans-38" x="751.464844"/>
     </g>
    </g>
    <g id="line2d_28">
     <path d="M 320.942187 118.169062 
L 330.942187 118.169062 
L 340.942187 118.169062 
" style="fill: none; stroke-dasharray: 6.4,1.6,1,1.6; stroke-dashoffset: 0; stroke: #000000; stroke-opacity: 0.8"/>
    </g>
    <g id="text_21">
     <!-- Equal-tail 5th CI: 7676.35 -->
     <g transform="translate(348.942187 121.669062) scale(0.1 -0.1)">
      <defs>
       <path id="DejaVuSans-71" d="M 947 1747 
Q 947 1113 1208 752 
Q 1469 391 1925 391 
Q 2381 391 2643 752 
Q 2906 1113 2906 1747 
Q 2906 2381 2643 2742 
Q 2381 3103 1925 3103 
Q 1469 3103 1208 2742 
Q 947 2381 947 1747 
z
M 2906 525 
Q 2725 213 2448 61 
Q 2172 -91 1784 -91 
Q 1150 -91 751 415 
Q 353 922 353 1747 
Q 353 2572 751 3078 
Q 1150 3584 1784 3584 
Q 2172 3584 2448 3432 
Q 2725 3281 2906 2969 
L 2906 3500 
L 3481 3500 
L 3481 -1331 
L 2906 -1331 
L 2906 525 
z
" transform="scale(0.015625)"/>
       <path id="DejaVuSans-2d" d="M 313 2009 
L 1997 2009 
L 1997 1497 
L 313 1497 
L 313 2009 
z
" transform="scale(0.015625)"/>
       <path id="DejaVuSans-68" d="M 3513 2113 
L 3513 0 
L 2938 0 
L 2938 2094 
Q 2938 2591 2744 2837 
Q 2550 3084 2163 3084 
Q 1697 3084 1428 2787 
Q 1159 2491 1159 1978 
L 1159 0 
L 581 0 
L 581 4863 
L 1159 4863 
L 1159 2956 
Q 1366 3272 1645 3428 
Q 1925 3584 2291 3584 
Q 2894 3584 3203 3211 
Q 3513 2838 3513 2113 
z
" transform="scale(0.015625)"/>
       <path id="DejaVuSans-43" d="M 4122 4306 
L 4122 3641 
Q 3803 3938 3442 4084 
Q 3081 4231 2675 4231 
Q 1875 4231 1450 3742 
Q 1025 3253 1025 2328 
Q 1025 1406 1450 917 
Q 1875 428 2675 428 
Q 3081 428 3442 575 
Q 3803 722 4122 1019 
L 4122 359 
Q 3791 134 3420 21 
Q 3050 -91 2638 -91 
Q 1578 -91 968 557 
Q 359 1206 359 2328 
Q 359 3453 968 4101 
Q 1578 4750 2638 4750 
Q 3056 4750 3426 4639 
Q 3797 4528 4122 4306 
z
" transform="scale(0.015625)"/>
       <path id="DejaVuSans-49" d="M 628 4666 
L 1259 4666 
L 1259 0 
L 628 0 
L 628 4666 
z
" transform="scale(0.015625)"/>
      </defs>
      <use xlink:href="#DejaVuSans-45"/>
      <use xlink:href="#DejaVuSans-71" x="63.183594"/>
      <use xlink:href="#DejaVuSans-75" x="126.660156"/>
      <use xlink:href="#DejaVuSans-61" x="190.039062"/>
      <use xlink:href="#DejaVuSans-6c" x="251.318359"/>
      <use xlink:href="#DejaVuSans-2d" x="279.101562"/>
      <use xlink:href="#DejaVuSans-74" x="315.185547"/>
      <use xlink:href="#DejaVuSans-61" x="354.394531"/>
      <use xlink:href="#DejaVuSans-69" x="415.673828"/>
      <use xlink:href="#DejaVuSans-6c" x="443.457031"/>
      <use xlink:href="#DejaVuSans-20" x="471.240234"/>
      <use xlink:href="#DejaVuSans-35" x="503.027344"/>
      <use xlink:href="#DejaVuSans-74" x="566.650391"/>
      <use xlink:href="#DejaVuSans-68" x="605.859375"/>
      <use xlink:href="#DejaVuSans-20" x="669.238281"/>
      <use xlink:href="#DejaVuSans-43" x="701.025391"/>
      <use xlink:href="#DejaVuSans-49" x="770.849609"/>
      <use xlink:href="#DejaVuSans-3a" x="800.341797"/>
      <use xlink:href="#DejaVuSans-20" x="834.033203"/>
      <use xlink:href="#DejaVuSans-37" x="865.820312"/>
      <use xlink:href="#DejaVuSans-36" x="929.443359"/>
      <use xlink:href="#DejaVuSans-37" x="993.066406"/>
      <use xlink:href="#DejaVuSans-36" x="1056.689453"/>
      <use xlink:href="#DejaVuSans-2e" x="1120.3125"/>
      <use xlink:href="#DejaVuSans-33" x="1152.099609"/>
      <use xlink:href="#DejaVuSans-35" x="1215.722656"/>
     </g>
    </g>
    <g id="line2d_29">
     <path d="M 320.942187 132.847188 
L 330.942187 132.847188 
L 340.942187 132.847188 
" style="fill: none; stroke-dasharray: 6.4,1.6,1,1.6; stroke-dashoffset: 0; stroke: #000000; stroke-opacity: 0.8"/>
    </g>
    <g id="text_22">
     <!-- Equal-tail 95th CI: 21670.35 -->
     <g transform="translate(348.942187 136.347188) scale(0.1 -0.1)">
      <use xlink:href="#DejaVuSans-45"/>
      <use xlink:href="#DejaVuSans-71" x="63.183594"/>
      <use xlink:href="#DejaVuSans-75" x="126.660156"/>
      <use xlink:href="#DejaVuSans-61" x="190.039062"/>
      <use xlink:href="#DejaVuSans-6c" x="251.318359"/>
      <use xlink:href="#DejaVuSans-2d" x="279.101562"/>
      <use xlink:href="#DejaVuSans-74" x="315.185547"/>
      <use xlink:href="#DejaVuSans-61" x="354.394531"/>
      <use xlink:href="#DejaVuSans-69" x="415.673828"/>
      <use xlink:href="#DejaVuSans-6c" x="443.457031"/>
      <use xlink:href="#DejaVuSans-20" x="471.240234"/>
      <use xlink:href="#DejaVuSans-39" x="503.027344"/>
      <use xlink:href="#DejaVuSans-35" x="566.650391"/>
      <use xlink:href="#DejaVuSans-74" x="630.273438"/>
      <use xlink:href="#DejaVuSans-68" x="669.482422"/>
      <use xlink:href="#DejaVuSans-20" x="732.861328"/>
      <use xlink:href="#DejaVuSans-43" x="764.648438"/>
      <use xlink:href="#DejaVuSans-49" x="834.472656"/>
      <use xlink:href="#DejaVuSans-3a" x="863.964844"/>
      <use xlink:href="#DejaVuSans-20" x="897.65625"/>
      <use xlink:href="#DejaVuSans-32" x="929.443359"/>
      <use xlink:href="#DejaVuSans-31" x="993.066406"/>
      <use xlink:href="#DejaVuSans-36" x="1056.689453"/>
      <use xlink:href="#DejaVuSans-37" x="1120.3125"/>
      <use xlink:href="#DejaVuSans-30" x="1183.935547"/>
      <use xlink:href="#DejaVuSans-2e" x="1247.558594"/>
      <use xlink:href="#DejaVuSans-33" x="1279.345703"/>
      <use xlink:href="#DejaVuSans-35" x="1342.96875"/>
     </g>
    </g>
    <g id="line2d_30">
     <path d="M 320.942187 147.525312 
L 330.942187 147.525312 
L 340.942187 147.525312 
" style="fill: none; stroke-dasharray: 3,1,1,1; stroke-dashoffset: 0; stroke: #000000; stroke-opacity: 0.8"/>
    </g>
    <g id="text_23">
     <!-- HPD 5th CI: 7222.73 -->
     <g transform="translate(348.942187 151.025312) scale(0.1 -0.1)">
      <defs>
       <path id="DejaVuSans-48" d="M 628 4666 
L 1259 4666 
L 1259 2753 
L 3553 2753 
L 3553 4666 
L 4184 4666 
L 4184 0 
L 3553 0 
L 3553 2222 
L 1259 2222 
L 1259 0 
L 628 0 
L 628 4666 
z
" transform="scale(0.015625)"/>
      </defs>
      <use xlink:href="#DejaVuSans-48"/>
      <use xlink:href="#DejaVuSans-50" x="75.195312"/>
      <use xlink:href="#DejaVuSans-44" x="135.498047"/>
      <use xlink:href="#DejaVuSans-20" x="212.5"/>
      <use xlink:href="#DejaVuSans-35" x="244.287109"/>
      <use xlink:href="#DejaVuSans-74" x="307.910156"/>
      <use xlink:href="#DejaVuSans-68" x="347.119141"/>
      <use xlink:href="#DejaVuSans-20" x="410.498047"/>
      <use xlink:href="#DejaVuSans-43" x="442.285156"/>
      <use xlink:href="#DejaVuSans-49" x="512.109375"/>
      <use xlink:href="#DejaVuSans-3a" x="541.601562"/>
      <use xlink:href="#DejaVuSans-20" x="575.292969"/>
      <use xlink:href="#DejaVuSans-37" x="607.080078"/>
      <use xlink:href="#DejaVuSans-32" x="670.703125"/>
      <use xlink:href="#DejaVuSans-32" x="734.326172"/>
      <use xlink:href="#DejaVuSans-32" x="797.949219"/>
      <use xlink:href="#DejaVuSans-2e" x="861.572266"/>
      <use xlink:href="#DejaVuSans-37" x="893.359375"/>
      <use xlink:href="#DejaVuSans-33" x="956.982422"/>
     </g>
    </g>
    <g id="line2d_31">
     <path d="M 320.942187 162.203438 
L 330.942187 162.203438 
L 340.942187 162.203438 
" style="fill: none; stroke-dasharray: 3,1,1,1; stroke-dashoffset: 0; stroke: #000000; stroke-opacity: 0.8"/>
    </g>
    <g id="text_24">
     <!-- HPD 95th CI: 19465.47 -->
     <g transform="translate(348.942187 165.703438) scale(0.1 -0.1)">
      <use xlink:href="#DejaVuSans-48"/>
      <use xlink:href="#DejaVuSans-50" x="75.195312"/>
      <use xlink:href="#DejaVuSans-44" x="135.498047"/>
      <use xlink:href="#DejaVuSans-20" x="212.5"/>
      <use xlink:href="#DejaVuSans-39" x="244.287109"/>
      <use xlink:href="#DejaVuSans-35" x="307.910156"/>
      <use xlink:href="#DejaVuSans-74" x="371.533203"/>
      <use xlink:href="#DejaVuSans-68" x="410.742188"/>
      <use xlink:href="#DejaVuSans-20" x="474.121094"/>
      <use xlink:href="#DejaVuSans-43" x="505.908203"/>
      <use xlink:href="#DejaVuSans-49" x="575.732422"/>
      <use xlink:href="#DejaVuSans-3a" x="605.224609"/>
      <use xlink:href="#DejaVuSans-20" x="638.916016"/>
      <use xlink:href="#DejaVuSans-31" x="670.703125"/>
      <use xlink:href="#DejaVuSans-39" x="734.326172"/>
      <use xlink:href="#DejaVuSans-34" x="797.949219"/>
      <use xlink:href="#DejaVuSans-36" x="861.572266"/>
      <use xlink:href="#DejaVuSans-35" x="925.195312"/>
      <use xlink:href="#DejaVuSans-2e" x="988.818359"/>
      <use xlink:href="#DejaVuSans-34" x="1020.605469"/>
      <use xlink:href="#DejaVuSans-37" x="1084.228516"/>
     </g>
    </g>
    <g id="line2d_32">
     <path d="M 320.942187 176.881562 
L 330.942187 176.881562 
L 340.942187 176.881562 
" style="fill: none; stroke: #000000; stroke-linecap: square"/>
    </g>
    <g id="text_25">
     <!-- ESS:832.70 -->
     <g transform="translate(348.942187 180.381562) scale(0.1 -0.1)">
      <defs>
       <path id="DejaVuSans-53" d="M 3425 4513 
L 3425 3897 
Q 3066 4069 2747 4153 
Q 2428 4238 2131 4238 
Q 1616 4238 1336 4038 
Q 1056 3838 1056 3469 
Q 1056 3159 1242 3001 
Q 1428 2844 1947 2747 
L 2328 2669 
Q 3034 2534 3370 2195 
Q 3706 1856 3706 1288 
Q 3706 609 3251 259 
Q 2797 -91 1919 -91 
Q 1588 -91 1214 -16 
Q 841 59 441 206 
L 441 856 
Q 825 641 1194 531 
Q 1563 422 1919 422 
Q 2459 422 2753 634 
Q 3047 847 3047 1241 
Q 3047 1584 2836 1778 
Q 2625 1972 2144 2069 
L 1759 2144 
Q 1053 2284 737 2584 
Q 422 2884 422 3419 
Q 422 4038 858 4394 
Q 1294 4750 2059 4750 
Q 2388 4750 2728 4690 
Q 3069 4631 3425 4513 
z
" transform="scale(0.015625)"/>
      </defs>
      <use xlink:href="#DejaVuSans-45"/>
      <use xlink:href="#DejaVuSans-53" x="63.183594"/>
      <use xlink:href="#DejaVuSans-53" x="126.660156"/>
      <use xlink:href="#DejaVuSans-3a" x="190.136719"/>
      <use xlink:href="#DejaVuSans-38" x="223.828125"/>
      <use xlink:href="#DejaVuSans-33" x="287.451172"/>
      <use xlink:href="#DejaVuSans-32" x="351.074219"/>
      <use xlink:href="#DejaVuSans-2e" x="414.697266"/>
      <use xlink:href="#DejaVuSans-37" x="446.484375"/>
      <use xlink:href="#DejaVuSans-30" x="510.107422"/>
     </g>
    </g>
    <g id="line2d_33">
     <path d="M 320.942187 191.559687 
L 330.942187 191.559687 
L 340.942187 191.559687 
" style="fill: none; stroke: #000000; stroke-linecap: square"/>
    </g>
    <g id="text_26">
     <!-- R_hat:1.00 -->
     <g transform="translate(348.942187 195.059687) scale(0.1 -0.1)">
      <defs>
       <path id="DejaVuSans-52" d="M 2841 2188 
Q 3044 2119 3236 1894 
Q 3428 1669 3622 1275 
L 4263 0 
L 3584 0 
L 2988 1197 
Q 2756 1666 2539 1819 
Q 2322 1972 1947 1972 
L 1259 1972 
L 1259 0 
L 628 0 
L 628 4666 
L 2053 4666 
Q 2853 4666 3247 4331 
Q 3641 3997 3641 3322 
Q 3641 2881 3436 2590 
Q 3231 2300 2841 2188 
z
M 1259 4147 
L 1259 2491 
L 2053 2491 
Q 2509 2491 2742 2702 
Q 2975 2913 2975 3322 
Q 2975 3731 2742 3939 
Q 2509 4147 2053 4147 
L 1259 4147 
z
" transform="scale(0.015625)"/>
      </defs>
      <use xlink:href="#DejaVuSans-52"/>
      <use xlink:href="#DejaVuSans-5f" x="69.482422"/>
      <use xlink:href="#DejaVuSans-68" x="119.482422"/>
      <use xlink:href="#DejaVuSans-61" x="182.861328"/>
      <use xlink:href="#DejaVuSans-74" x="244.140625"/>
      <use xlink:href="#DejaVuSans-3a" x="283.349609"/>
      <use xlink:href="#DejaVuSans-31" x="317.041016"/>
      <use xlink:href="#DejaVuSans-2e" x="380.664062"/>
      <use xlink:href="#DejaVuSans-30" x="412.451172"/>
      <use xlink:href="#DejaVuSans-30" x="476.074219"/>
     </g>
    </g>
   </g>
  </g>
  <g id="axes_2">
   <g id="patch_57">
    <path d="M 543.17 389.93875 
L 997.2 389.93875 
L 997.2 31.68 
L 543.17 31.68 
z
" style="fill: #ffffff"/>
   </g>
   <g id="patch_58">
    <path d="M 564.650083 389.93875 
L 571.388933 389.93875 
L 571.388933 377.753078 
L 564.650083 377.753078 
z
" clip-path="url(#p0d773919c4)" style="fill: #808080; opacity: 0.8"/>
   </g>
   <g id="patch_59">
    <path d="M 573.073646 389.93875 
L 579.812495 389.93875 
L 579.812495 389.93875 
L 573.073646 389.93875 
z
" clip-path="url(#p0d773919c4)" style="fill: #808080; opacity: 0.8"/>
   </g>
   <g id="patch_60">
    <path d="M 581.497208 389.93875 
L 588.236058 389.93875 
L 588.236058 389.93875 
L 581.497208 389.93875 
z
" clip-path="url(#p0d773919c4)" style="fill: #808080; opacity: 0.8"/>
   </g>
   <g id="patch_61">
    <path d="M 589.92077 389.93875 
L 596.65962 389.93875 
L 596.65962 341.196063 
L 589.92077 341.196063 
z
" clip-path="url(#p0d773919c4)" style="fill: #808080; opacity: 0.8"/>
   </g>
   <g id="patch_62">
    <path d="M 598.344332 389.93875 
L 605.083182 389.93875 
L 605.083182 304.639048 
L 598.344332 304.639048 
z
" clip-path="url(#p0d773919c4)" style="fill: #808080; opacity: 0.8"/>
   </g>
   <g id="patch_63">
    <path d="M 606.767894 389.93875 
L 613.506744 389.93875 
L 613.506744 243.710689 
L 606.767894 243.710689 
z
" clip-path="url(#p0d773919c4)" style="fill: #808080; opacity: 0.8"/>
   </g>
   <g id="patch_64">
    <path d="M 615.191456 389.93875 
L 621.930306 389.93875 
L 621.930306 255.896361 
L 615.191456 255.896361 
z
" clip-path="url(#p0d773919c4)" style="fill: #808080; opacity: 0.8"/>
   </g>
   <g id="patch_65">
    <path d="M 623.615019 389.93875 
L 630.353868 389.93875 
L 630.353868 243.710689 
L 623.615019 243.710689 
z
" clip-path="url(#p0d773919c4)" style="fill: #808080; opacity: 0.8"/>
   </g>
   <g id="patch_66">
    <path d="M 632.038581 389.93875 
L 638.77743 389.93875 
L 638.77743 121.853971 
L 632.038581 121.853971 
z
" clip-path="url(#p0d773919c4)" style="fill: #808080; opacity: 0.8"/>
   </g>
   <g id="patch_67">
    <path d="M 640.462143 389.93875 
L 647.200993 389.93875 
L 647.200993 182.78233 
L 640.462143 182.78233 
z
" clip-path="url(#p0d773919c4)" style="fill: #808080; opacity: 0.8"/>
   </g>
   <g id="patch_68">
    <path d="M 648.885705 389.93875 
L 655.624555 389.93875 
L 655.624555 48.73994 
L 648.885705 48.73994 
z
" clip-path="url(#p0d773919c4)" style="fill: #808080; opacity: 0.8"/>
   </g>
   <g id="patch_69">
    <path d="M 657.309267 389.93875 
L 664.048117 389.93875 
L 664.048117 85.296956 
L 657.309267 85.296956 
z
" clip-path="url(#p0d773919c4)" style="fill: #808080; opacity: 0.8"/>
   </g>
   <g id="patch_70">
    <path d="M 665.732829 389.93875 
L 672.471679 389.93875 
L 672.471679 73.111284 
L 665.732829 73.111284 
z
" clip-path="url(#p0d773919c4)" style="fill: #808080; opacity: 0.8"/>
   </g>
   <g id="patch_71">
    <path d="M 674.156391 389.93875 
L 680.895241 389.93875 
L 680.895241 146.225315 
L 674.156391 146.225315 
z
" clip-path="url(#p0d773919c4)" style="fill: #808080; opacity: 0.8"/>
   </g>
   <g id="patch_72">
    <path d="M 682.579954 389.93875 
L 689.318803 389.93875 
L 689.318803 231.525017 
L 682.579954 231.525017 
z
" clip-path="url(#p0d773919c4)" style="fill: #808080; opacity: 0.8"/>
   </g>
   <g id="patch_73">
    <path d="M 691.003516 389.93875 
L 697.742365 389.93875 
L 697.742365 109.668299 
L 691.003516 109.668299 
z
" clip-path="url(#p0d773919c4)" style="fill: #808080; opacity: 0.8"/>
   </g>
   <g id="patch_74">
    <path d="M 699.427078 389.93875 
L 706.165928 389.93875 
L 706.165928 194.968002 
L 699.427078 194.968002 
z
" clip-path="url(#p0d773919c4)" style="fill: #808080; opacity: 0.8"/>
   </g>
   <g id="patch_75">
    <path d="M 707.85064 389.93875 
L 714.58949 389.93875 
L 714.58949 182.78233 
L 707.85064 182.78233 
z
" clip-path="url(#p0d773919c4)" style="fill: #808080; opacity: 0.8"/>
   </g>
   <g id="patch_76">
    <path d="M 716.274202 389.93875 
L 723.013052 389.93875 
L 723.013052 207.153673 
L 716.274202 207.153673 
z
" clip-path="url(#p0d773919c4)" style="fill: #808080; opacity: 0.8"/>
   </g>
   <g id="patch_77">
    <path d="M 724.697764 389.93875 
L 731.436614 389.93875 
L 731.436614 158.410986 
L 724.697764 158.410986 
z
" clip-path="url(#p0d773919c4)" style="fill: #808080; opacity: 0.8"/>
   </g>
   <g id="patch_78">
    <path d="M 733.121327 389.93875 
L 739.860176 389.93875 
L 739.860176 231.525017 
L 733.121327 231.525017 
z
" clip-path="url(#p0d773919c4)" style="fill: #808080; opacity: 0.8"/>
   </g>
   <g id="patch_79">
    <path d="M 741.544889 389.93875 
L 748.283738 389.93875 
L 748.283738 182.78233 
L 741.544889 182.78233 
z
" clip-path="url(#p0d773919c4)" style="fill: #808080; opacity: 0.8"/>
   </g>
   <g id="patch_80">
    <path d="M 749.968451 389.93875 
L 756.707301 389.93875 
L 756.707301 146.225315 
L 749.968451 146.225315 
z
" clip-path="url(#p0d773919c4)" style="fill: #808080; opacity: 0.8"/>
   </g>
   <g id="patch_81">
    <path d="M 758.392013 389.93875 
L 765.130863 389.93875 
L 765.130863 255.896361 
L 758.392013 255.896361 
z
" clip-path="url(#p0d773919c4)" style="fill: #808080; opacity: 0.8"/>
   </g>
   <g id="patch_82">
    <path d="M 766.815575 389.93875 
L 773.554425 389.93875 
L 773.554425 329.010391 
L 766.815575 329.010391 
z
" clip-path="url(#p0d773919c4)" style="fill: #808080; opacity: 0.8"/>
   </g>
   <g id="patch_83">
    <path d="M 775.239137 389.93875 
L 781.977987 389.93875 
L 781.977987 243.710689 
L 775.239137 243.710689 
z
" clip-path="url(#p0d773919c4)" style="fill: #808080; opacity: 0.8"/>
   </g>
   <g id="patch_84">
    <path d="M 783.662699 389.93875 
L 790.401549 389.93875 
L 790.401549 341.196063 
L 783.662699 341.196063 
z
" clip-path="url(#p0d773919c4)" style="fill: #808080; opacity: 0.8"/>
   </g>
   <g id="patch_85">
    <path d="M 792.086262 389.93875 
L 798.825111 389.93875 
L 798.825111 304.639048 
L 792.086262 304.639048 
z
" clip-path="url(#p0d773919c4)" style="fill: #808080; opacity: 0.8"/>
   </g>
   <g id="patch_86">
    <path d="M 800.509824 389.93875 
L 807.248673 389.93875 
L 807.248673 304.639048 
L 800.509824 304.639048 
z
" clip-path="url(#p0d773919c4)" style="fill: #808080; opacity: 0.8"/>
   </g>
   <g id="patch_87">
    <path d="M 808.933386 389.93875 
L 815.672236 389.93875 
L 815.672236 353.381735 
L 808.933386 353.381735 
z
" clip-path="url(#p0d773919c4)" style="fill: #808080; opacity: 0.8"/>
   </g>
   <g id="patch_88">
    <path d="M 817.356948 389.93875 
L 824.095798 389.93875 
L 824.095798 341.196063 
L 817.356948 341.196063 
z
" clip-path="url(#p0d773919c4)" style="fill: #808080; opacity: 0.8"/>
   </g>
   <g id="patch_89">
    <path d="M 825.78051 389.93875 
L 832.51936 389.93875 
L 832.51936 377.753078 
L 825.78051 377.753078 
z
" clip-path="url(#p0d773919c4)" style="fill: #808080; opacity: 0.8"/>
   </g>
   <g id="patch_90">
    <path d="M 834.204072 389.93875 
L 840.942922 389.93875 
L 840.942922 365.567406 
L 834.204072 365.567406 
z
" clip-path="url(#p0d773919c4)" style="fill: #808080; opacity: 0.8"/>
   </g>
   <g id="patch_91">
    <path d="M 842.627635 389.93875 
L 849.366484 389.93875 
L 849.366484 389.93875 
L 842.627635 389.93875 
z
" clip-path="url(#p0d773919c4)" style="fill: #808080; opacity: 0.8"/>
   </g>
   <g id="patch_92">
    <path d="M 851.051197 389.93875 
L 857.790046 389.93875 
L 857.790046 389.93875 
L 851.051197 389.93875 
z
" clip-path="url(#p0d773919c4)" style="fill: #808080; opacity: 0.8"/>
   </g>
   <g id="patch_93">
    <path d="M 859.474759 389.93875 
L 866.213609 389.93875 
L 866.213609 377.753078 
L 859.474759 377.753078 
z
" clip-path="url(#p0d773919c4)" style="fill: #808080; opacity: 0.8"/>
   </g>
   <g id="patch_94">
    <path d="M 867.898321 389.93875 
L 874.637171 389.93875 
L 874.637171 377.753078 
L 867.898321 377.753078 
z
" clip-path="url(#p0d773919c4)" style="fill: #808080; opacity: 0.8"/>
   </g>
   <g id="patch_95">
    <path d="M 876.321883 389.93875 
L 883.060733 389.93875 
L 883.060733 377.753078 
L 876.321883 377.753078 
z
" clip-path="url(#p0d773919c4)" style="fill: #808080; opacity: 0.8"/>
   </g>
   <g id="patch_96">
    <path d="M 884.745445 389.93875 
L 891.484295 389.93875 
L 891.484295 377.753078 
L 884.745445 377.753078 
z
" clip-path="url(#p0d773919c4)" style="fill: #808080; opacity: 0.8"/>
   </g>
   <g id="patch_97">
    <path d="M 893.169007 389.93875 
L 899.907857 389.93875 
L 899.907857 377.753078 
L 893.169007 377.753078 
z
" clip-path="url(#p0d773919c4)" style="fill: #808080; opacity: 0.8"/>
   </g>
   <g id="patch_98">
    <path d="M 901.59257 389.93875 
L 908.331419 389.93875 
L 908.331419 389.93875 
L 901.59257 389.93875 
z
" clip-path="url(#p0d773919c4)" style="fill: #808080; opacity: 0.8"/>
   </g>
   <g id="patch_99">
    <path d="M 910.016132 389.93875 
L 916.754981 389.93875 
L 916.754981 389.93875 
L 910.016132 389.93875 
z
" clip-path="url(#p0d773919c4)" style="fill: #808080; opacity: 0.8"/>
   </g>
   <g id="patch_100">
    <path d="M 918.439694 389.93875 
L 925.178544 389.93875 
L 925.178544 389.93875 
L 918.439694 389.93875 
z
" clip-path="url(#p0d773919c4)" style="fill: #808080; opacity: 0.8"/>
   </g>
   <g id="patch_101">
    <path d="M 926.863256 389.93875 
L 933.602106 389.93875 
L 933.602106 389.93875 
L 926.863256 389.93875 
z
" clip-path="url(#p0d773919c4)" style="fill: #808080; opacity: 0.8"/>
   </g>
   <g id="patch_102">
    <path d="M 935.286818 389.93875 
L 942.025668 389.93875 
L 942.025668 377.753078 
L 935.286818 377.753078 
z
" clip-path="url(#p0d773919c4)" style="fill: #808080; opacity: 0.8"/>
   </g>
   <g id="patch_103">
    <path d="M 943.71038 389.93875 
L 950.44923 389.93875 
L 950.44923 389.93875 
L 943.71038 389.93875 
z
" clip-path="url(#p0d773919c4)" style="fill: #808080; opacity: 0.8"/>
   </g>
   <g id="patch_104">
    <path d="M 952.133942 389.93875 
L 958.872792 389.93875 
L 958.872792 389.93875 
L 952.133942 389.93875 
z
" clip-path="url(#p0d773919c4)" style="fill: #808080; opacity: 0.8"/>
   </g>
   <g id="patch_105">
    <path d="M 960.557505 389.93875 
L 967.296354 389.93875 
L 967.296354 389.93875 
L 960.557505 389.93875 
z
" clip-path="url(#p0d773919c4)" style="fill: #808080; opacity: 0.8"/>
   </g>
   <g id="patch_106">
    <path d="M 968.981067 389.93875 
L 975.719917 389.93875 
L 975.719917 389.93875 
L 968.981067 389.93875 
z
" clip-path="url(#p0d773919c4)" style="fill: #808080; opacity: 0.8"/>
   </g>
   <g id="matplotlib.axis_3">
    <g id="xtick_7">
     <g id="line2d_34">
      <g>
       <use xlink:href="#mf88019acc6" x="579.145285" y="389.93875" style="stroke: #000000; stroke-width: 0.8"/>
      </g>
     </g>
     <g id="text_27">
      <!-- 5000 -->
      <g transform="translate(566.420285 404.537187) scale(0.1 -0.1)">
       <use xlink:href="#DejaVuSans-35"/>
       <use xlink:href="#DejaVuSans-30" x="63.623047"/>
       <use xlink:href="#DejaVuSans-30" x="127.246094"/>
       <use xlink:href="#DejaVuSans-30" x="190.869141"/>
      </g>
     </g>
    </g>
    <g id="xtick_8">
     <g id="line2d_35">
      <g>
       <use xlink:href="#mf88019acc6" x="644.538229" y="389.93875" style="stroke: #000000; stroke-width: 0.8"/>
      </g>
     </g>
     <g id="text_28">
      <!-- 10000 -->
      <g transform="translate(628.631979 404.537187) scale(0.1 -0.1)">
       <use xlink:href="#DejaVuSans-31"/>
       <use xlink:href="#DejaVuSans-30" x="63.623047"/>
       <use xlink:href="#DejaVuSans-30" x="127.246094"/>
       <use xlink:href="#DejaVuSans-30" x="190.869141"/>
       <use xlink:href="#DejaVuSans-30" x="254.492188"/>
      </g>
     </g>
    </g>
    <g id="xtick_9">
     <g id="line2d_36">
      <g>
       <use xlink:href="#mf88019acc6" x="709.931172" y="389.93875" style="stroke: #000000; stroke-width: 0.8"/>
      </g>
     </g>
     <g id="text_29">
      <!-- 15000 -->
      <g transform="translate(694.024922 404.537187) scale(0.1 -0.1)">
       <use xlink:href="#DejaVuSans-31"/>
       <use xlink:href="#DejaVuSans-35" x="63.623047"/>
       <use xlink:href="#DejaVuSans-30" x="127.246094"/>
       <use xlink:href="#DejaVuSans-30" x="190.869141"/>
       <use xlink:href="#DejaVuSans-30" x="254.492188"/>
      </g>
     </g>
    </g>
    <g id="xtick_10">
     <g id="line2d_37">
      <g>
       <use xlink:href="#mf88019acc6" x="775.324115" y="389.93875" style="stroke: #000000; stroke-width: 0.8"/>
      </g>
     </g>
     <g id="text_30">
      <!-- 20000 -->
      <g transform="translate(759.417865 404.537187) scale(0.1 -0.1)">
       <use xlink:href="#DejaVuSans-32"/>
       <use xlink:href="#DejaVuSans-30" x="63.623047"/>
       <use xlink:href="#DejaVuSans-30" x="127.246094"/>
       <use xlink:href="#DejaVuSans-30" x="190.869141"/>
       <use xlink:href="#DejaVuSans-30" x="254.492188"/>
      </g>
     </g>
    </g>
    <g id="xtick_11">
     <g id="line2d_38">
      <g>
       <use xlink:href="#mf88019acc6" x="840.717058" y="389.93875" style="stroke: #000000; stroke-width: 0.8"/>
      </g>
     </g>
     <g id="text_31">
      <!-- 25000 -->
      <g transform="translate(824.810808 404.537187) scale(0.1 -0.1)">
       <use xlink:href="#DejaVuSans-32"/>
       <use xlink:href="#DejaVuSans-35" x="63.623047"/>
       <use xlink:href="#DejaVuSans-30" x="127.246094"/>
       <use xlink:href="#DejaVuSans-30" x="190.869141"/>
       <use xlink:href="#DejaVuSans-30" x="254.492188"/>
      </g>
     </g>
    </g>
    <g id="xtick_12">
     <g id="line2d_39">
      <g>
       <use xlink:href="#mf88019acc6" x="906.110002" y="389.93875" style="stroke: #000000; stroke-width: 0.8"/>
      </g>
     </g>
     <g id="text_32">
      <!-- 30000 -->
      <g transform="translate(890.203752 404.537187) scale(0.1 -0.1)">
       <use xlink:href="#DejaVuSans-33"/>
       <use xlink:href="#DejaVuSans-30" x="63.623047"/>
       <use xlink:href="#DejaVuSans-30" x="127.246094"/>
       <use xlink:href="#DejaVuSans-30" x="190.869141"/>
       <use xlink:href="#DejaVuSans-30" x="254.492188"/>
      </g>
     </g>
    </g>
    <g id="xtick_13">
     <g id="line2d_40">
      <g>
       <use xlink:href="#mf88019acc6" x="971.502945" y="389.93875" style="stroke: #000000; stroke-width: 0.8"/>
      </g>
     </g>
     <g id="text_33">
      <!-- 35000 -->
      <g transform="translate(955.596695 404.537187) scale(0.1 -0.1)">
       <use xlink:href="#DejaVuSans-33"/>
       <use xlink:href="#DejaVuSans-35" x="63.623047"/>
       <use xlink:href="#DejaVuSans-30" x="127.246094"/>
       <use xlink:href="#DejaVuSans-30" x="190.869141"/>
       <use xlink:href="#DejaVuSans-30" x="254.492188"/>
      </g>
     </g>
    </g>
    <g id="text_34">
     <!-- Cyatheales_sigma2 -->
     <g transform="translate(721.546719 418.215312) scale(0.1 -0.1)">
      <use xlink:href="#DejaVuSans-43"/>
      <use xlink:href="#DejaVuSans-79" x="69.824219"/>
      <use xlink:href="#DejaVuSans-61" x="129.003906"/>
      <use xlink:href="#DejaVuSans-74" x="190.283203"/>
      <use xlink:href="#DejaVuSans-68" x="229.492188"/>
      <use xlink:href="#DejaVuSans-65" x="292.871094"/>
      <use xlink:href="#DejaVuSans-61" x="354.394531"/>
      <use xlink:href="#DejaVuSans-6c" x="415.673828"/>
      <use xlink:href="#DejaVuSans-65" x="443.457031"/>
      <use xlink:href="#DejaVuSans-73" x="504.980469"/>
      <use xlink:href="#DejaVuSans-5f" x="557.080078"/>
      <use xlink:href="#DejaVuSans-73" x="607.080078"/>
      <use xlink:href="#DejaVuSans-69" x="659.179688"/>
      <use xlink:href="#DejaVuSans-67" x="686.962891"/>
      <use xlink:href="#DejaVuSans-6d" x="750.439453"/>
      <use xlink:href="#DejaVuSans-61" x="847.851562"/>
      <use xlink:href="#DejaVuSans-32" x="909.130859"/>
     </g>
    </g>
   </g>
   <g id="matplotlib.axis_4">
    <g id="ytick_8">
     <g id="line2d_41">
      <g>
       <use xlink:href="#m99604b93b1" x="543.17" y="389.93875" style="stroke: #000000; stroke-width: 0.8"/>
      </g>
     </g>
     <g id="text_35">
      <!-- 0 -->
      <g transform="translate(529.8075 393.737969) scale(0.1 -0.1)">
       <use xlink:href="#DejaVuSans-30"/>
      </g>
     </g>
    </g>
    <g id="ytick_9">
     <g id="line2d_42">
      <g>
       <use xlink:href="#m99604b93b1" x="543.17" y="329.010391" style="stroke: #000000; stroke-width: 0.8"/>
      </g>
     </g>
     <g id="text_36">
      <!-- 5 -->
      <g transform="translate(529.8075 332.80961) scale(0.1 -0.1)">
       <use xlink:href="#DejaVuSans-35"/>
      </g>
     </g>
    </g>
    <g id="ytick_10">
     <g id="line2d_43">
      <g>
       <use xlink:href="#m99604b93b1" x="543.17" y="268.082032" style="stroke: #000000; stroke-width: 0.8"/>
      </g>
     </g>
     <g id="text_37">
      <!-- 10 -->
      <g transform="translate(523.445 271.881251) scale(0.1 -0.1)">
       <use xlink:href="#DejaVuSans-31"/>
       <use xlink:href="#DejaVuSans-30" x="63.623047"/>
      </g>
     </g>
    </g>
    <g id="ytick_11">
     <g id="line2d_44">
      <g>
       <use xlink:href="#m99604b93b1" x="543.17" y="207.153673" style="stroke: #000000; stroke-width: 0.8"/>
      </g>
     </g>
     <g id="text_38">
      <!-- 15 -->
      <g transform="translate(523.445 210.952892) scale(0.1 -0.1)">
       <use xlink:href="#DejaVuSans-31"/>
       <use xlink:href="#DejaVuSans-35" x="63.623047"/>
      </g>
     </g>
    </g>
    <g id="ytick_12">
     <g id="line2d_45">
      <g>
       <use xlink:href="#m99604b93b1" x="543.17" y="146.225315" style="stroke: #000000; stroke-width: 0.8"/>
      </g>
     </g>
     <g id="text_39">
      <!-- 20 -->
      <g transform="translate(523.445 150.024533) scale(0.1 -0.1)">
       <use xlink:href="#DejaVuSans-32"/>
       <use xlink:href="#DejaVuSans-30" x="63.623047"/>
      </g>
     </g>
    </g>
    <g id="ytick_13">
     <g id="line2d_46">
      <g>
       <use xlink:href="#m99604b93b1" x="543.17" y="85.296956" style="stroke: #000000; stroke-width: 0.8"/>
      </g>
     </g>
     <g id="text_40">
      <!-- 25 -->
      <g transform="translate(523.445 89.096175) scale(0.1 -0.1)">
       <use xlink:href="#DejaVuSans-32"/>
       <use xlink:href="#DejaVuSans-35" x="63.623047"/>
      </g>
     </g>
    </g>
    <g id="text_41">
     <!-- Number of samples -->
     <g transform="translate(517.365313 259.676562) rotate(-90) scale(0.1 -0.1)">
      <use xlink:href="#DejaVuSans-4e"/>
      <use xlink:href="#DejaVuSans-75" x="74.804688"/>
      <use xlink:href="#DejaVuSans-6d" x="138.183594"/>
      <use xlink:href="#DejaVuSans-62" x="235.595703"/>
      <use xlink:href="#DejaVuSans-65" x="299.072266"/>
      <use xlink:href="#DejaVuSans-72" x="360.595703"/>
      <use xlink:href="#DejaVuSans-20" x="401.708984"/>
      <use xlink:href="#DejaVuSans-6f" x="433.496094"/>
      <use xlink:href="#DejaVuSans-66" x="494.677734"/>
      <use xlink:href="#DejaVuSans-20" x="529.882812"/>
      <use xlink:href="#DejaVuSans-73" x="561.669922"/>
      <use xlink:href="#DejaVuSans-61" x="613.769531"/>
      <use xlink:href="#DejaVuSans-6d" x="675.048828"/>
      <use xlink:href="#DejaVuSans-70" x="772.460938"/>
      <use xlink:href="#DejaVuSans-6c" x="835.9375"/>
      <use xlink:href="#DejaVuSans-65" x="863.720703"/>
      <use xlink:href="#DejaVuSans-73" x="925.244141"/>
     </g>
    </g>
   </g>
   <g id="line2d_47">
    <path d="M 563.807727 381.328054 
L 566.289218 379.421812 
L 568.770708 377.168077 
L 571.252198 374.527214 
L 573.733688 371.462123 
L 576.215179 367.940084 
L 578.696669 363.934526 
L 581.178159 359.42652 
L 583.659649 354.405854 
L 586.14114 348.871566 
L 588.62263 342.831864 
L 591.10412 336.303454 
L 594.412774 326.881059 
L 597.721427 316.705273 
L 601.030081 305.859291 
L 605.165898 291.493692 
L 610.128879 273.299287 
L 615.919023 251.142391 
L 629.980801 196.74926 
L 634.116618 181.867479 
L 637.425271 170.798868 
L 639.906762 163.124418 
L 642.388252 156.083818 
L 644.869742 149.757589 
L 647.351232 144.216976 
L 649.005559 140.989298 
L 650.659886 138.150888 
L 652.314213 135.712 
L 653.96854 133.679161 
L 655.622867 132.054927 
L 657.277193 130.837717 
L 658.93152 130.021735 
L 660.585847 129.59698 
L 662.240174 129.549362 
L 663.894501 129.860921 
L 665.548828 130.51015 
L 667.203154 131.472407 
L 668.857481 132.720428 
L 670.511808 134.224897 
L 672.993298 136.894985 
L 675.474789 139.966501 
L 678.783442 144.505287 
L 683.746423 151.80379 
L 690.36373 161.513586 
L 694.499547 167.189857 
L 697.808201 171.410972 
L 701.116855 175.31546 
L 704.425508 178.890042 
L 707.734162 182.131169 
L 711.042816 185.043746 
L 714.351469 187.643848 
L 717.660123 189.96422 
L 721.79594 192.559025 
L 731.721901 198.544326 
L 734.203391 200.31966 
L 736.684882 202.344123 
L 739.166372 204.684073 
L 741.647862 207.397483 
L 744.129352 210.529509 
L 746.610843 214.108634 
L 749.092333 218.143836 
L 751.573823 222.623129 
L 754.055313 227.513712 
L 757.363967 234.582442 
L 761.499784 244.06202 
L 774.734399 275.071672 
L 778.870216 283.929102 
L 783.006033 292.178923 
L 787.14185 299.864067 
L 791.277667 307.088656 
L 796.240648 315.32211 
L 802.857955 325.831748 
L 809.475262 335.946786 
L 815.265406 344.395527 
L 819.401223 350.099706 
L 823.53704 355.44296 
L 826.845694 359.408988 
L 830.154348 363.065189 
L 833.463001 366.384236 
L 836.771655 369.344798 
L 840.080309 371.932347 
L 842.561799 373.623862 
L 845.043289 375.102069 
L 847.52478 376.370598 
L 850.00627 377.436497 
L 852.48776 378.310374 
L 855.796414 379.201812 
L 859.105067 379.820117 
L 862.413721 380.216637 
L 866.549538 380.487645 
L 873.994009 380.689518 
L 880.611316 380.945509 
L 885.574297 381.342972 
L 890.537277 381.947744 
L 897.154585 383.007006 
L 911.216363 385.364732 
L 917.006507 386.077882 
L 923.623814 386.657319 
L 934.376938 387.310019 
L 947.611553 388.178289 
L 964.154821 389.294787 
L 973.253619 389.662646 
L 976.562273 389.746514 
L 976.562273 389.746514 
" clip-path="url(#p0d773919c4)" style="fill: none; stroke: #000000; stroke-opacity: 0.8; stroke-linecap: square"/>
   </g>
   <g id="line2d_48">
    <path d="M 697.510889 389.93875 
L 697.510889 31.68 
" clip-path="url(#p0d773919c4)" style="fill: none; stroke-dasharray: 1,1.65; stroke-dashoffset: 0; stroke: #000000; stroke-opacity: 0.8"/>
   </g>
   <g id="line2d_49">
    <path d="M 691.215293 389.93875 
L 691.215293 31.68 
" clip-path="url(#p0d773919c4)" style="fill: none; stroke-dasharray: 3.7,1.6; stroke-dashoffset: 0; stroke: #000000; stroke-opacity: 0.8"/>
   </g>
   <g id="line2d_50">
    <path d="M 661.413011 389.93875 
L 661.413011 31.68 
" clip-path="url(#p0d773919c4)" style="fill: none; stroke: #000000; stroke-opacity: 0.8; stroke-linecap: square"/>
   </g>
   <g id="line2d_51">
    <path d="M 611.120324 389.93875 
L 611.120324 31.68 
" clip-path="url(#p0d773919c4)" style="fill: none; stroke-dasharray: 6.4,1.6,1,1.6; stroke-dashoffset: 0; stroke: #000000; stroke-opacity: 0.8"/>
   </g>
   <g id="line2d_52">
    <path d="M 801.327069 389.93875 
L 801.327069 31.68 
" clip-path="url(#p0d773919c4)" style="fill: none; stroke-dasharray: 6.4,1.6,1,1.6; stroke-dashoffset: 0; stroke: #000000; stroke-opacity: 0.8"/>
   </g>
   <g id="line2d_53">
    <path d="M 604.735048 389.93875 
L 604.735048 31.68 
" clip-path="url(#p0d773919c4)" style="fill: none; stroke-dasharray: 3,1,1,1; stroke-dashoffset: 0; stroke: #000000; stroke-opacity: 0.8"/>
   </g>
   <g id="line2d_54">
    <path d="M 785.736869 389.93875 
L 785.736869 31.68 
" clip-path="url(#p0d773919c4)" style="fill: none; stroke-dasharray: 3,1,1,1; stroke-dashoffset: 0; stroke: #000000; stroke-opacity: 0.8"/>
   </g>
   <g id="line2d_55"/>
   <g id="line2d_56"/>
   <g id="patch_107">
    <path d="M 543.17 389.93875 
L 543.17 31.68 
" style="fill: none; stroke: #000000; stroke-width: 0.8; stroke-linejoin: miter; stroke-linecap: square"/>
   </g>
   <g id="patch_108">
    <path d="M 997.2 389.93875 
L 997.2 31.68 
" style="fill: none; stroke: #000000; stroke-width: 0.8; stroke-linejoin: miter; stroke-linecap: square"/>
   </g>
   <g id="patch_109">
    <path d="M 543.17 389.93875 
L 997.2 389.93875 
" style="fill: none; stroke: #000000; stroke-width: 0.8; stroke-linejoin: miter; stroke-linecap: square"/>
   </g>
   <g id="patch_110">
    <path d="M 543.17 31.68 
L 997.2 31.68 
" style="fill: none; stroke: #000000; stroke-width: 0.8; stroke-linejoin: miter; stroke-linecap: square"/>
   </g>
   <g id="legend_2">
    <g id="patch_111">
     <path d="M 819.542188 48.278437 
L 839.542188 48.278437 
L 839.542188 41.278437 
L 819.542188 41.278437 
z
" style="fill: #808080; opacity: 0.8"/>
    </g>
    <g id="text_42">
     <!-- Posterior samples -->
     <g transform="translate(847.542188 48.278437) scale(0.1 -0.1)">
      <use xlink:href="#DejaVuSans-50"/>
      <use xlink:href="#DejaVuSans-6f" x="56.677734"/>
      <use xlink:href="#DejaVuSans-73" x="117.859375"/>
      <use xlink:href="#DejaVuSans-74" x="169.958984"/>
      <use xlink:href="#DejaVuSans-65" x="209.167969"/>
      <use xlink:href="#DejaVuSans-72" x="270.691406"/>
      <use xlink:href="#DejaVuSans-69" x="311.804688"/>
      <use xlink:href="#DejaVuSans-6f" x="339.587891"/>
      <use xlink:href="#DejaVuSans-72" x="400.769531"/>
      <use xlink:href="#DejaVuSans-20" x="441.882812"/>
      <use xlink:href="#DejaVuSans-73" x="473.669922"/>
      <use xlink:href="#DejaVuSans-61" x="525.769531"/>
      <use xlink:href="#DejaVuSans-6d" x="587.048828"/>
      <use xlink:href="#DejaVuSans-70" x="684.460938"/>
      <use xlink:href="#DejaVuSans-6c" x="747.9375"/>
      <use xlink:href="#DejaVuSans-65" x="775.720703"/>
      <use xlink:href="#DejaVuSans-73" x="837.244141"/>
     </g>
    </g>
    <g id="line2d_57">
     <path d="M 819.542188 59.456563 
L 829.542188 59.456563 
L 839.542188 59.456563 
" style="fill: none; stroke: #000000; stroke-opacity: 0.8; stroke-linecap: square"/>
    </g>
    <g id="text_43">
     <!-- KDE curve -->
     <g transform="translate(847.542188 62.956563) scale(0.1 -0.1)">
      <use xlink:href="#DejaVuSans-4b"/>
      <use xlink:href="#DejaVuSans-44" x="65.576172"/>
      <use xlink:href="#DejaVuSans-45" x="142.578125"/>
      <use xlink:href="#DejaVuSans-20" x="205.761719"/>
      <use xlink:href="#DejaVuSans-63" x="237.548828"/>
      <use xlink:href="#DejaVuSans-75" x="292.529297"/>
      <use xlink:href="#DejaVuSans-72" x="355.908203"/>
      <use xlink:href="#DejaVuSans-76" x="397.021484"/>
      <use xlink:href="#DejaVuSans-65" x="456.201172"/>
     </g>
    </g>
    <g id="line2d_58">
     <path d="M 819.542188 74.134688 
L 829.542188 74.134688 
L 839.542188 74.134688 
" style="fill: none; stroke-dasharray: 1,1.65; stroke-dashoffset: 0; stroke: #000000; stroke-opacity: 0.8"/>
    </g>
    <g id="text_44">
     <!-- Mean: 14050.33 -->
     <g transform="translate(847.542188 77.634688) scale(0.1 -0.1)">
      <use xlink:href="#DejaVuSans-4d"/>
      <use xlink:href="#DejaVuSans-65" x="86.279297"/>
      <use xlink:href="#DejaVuSans-61" x="147.802734"/>
      <use xlink:href="#DejaVuSans-6e" x="209.082031"/>
      <use xlink:href="#DejaVuSans-3a" x="272.460938"/>
      <use xlink:href="#DejaVuSans-20" x="306.152344"/>
      <use xlink:href="#DejaVuSans-31" x="337.939453"/>
      <use xlink:href="#DejaVuSans-34" x="401.5625"/>
      <use xlink:href="#DejaVuSans-30" x="465.185547"/>
      <use xlink:href="#DejaVuSans-35" x="528.808594"/>
      <use xlink:href="#DejaVuSans-30" x="592.431641"/>
      <use xlink:href="#DejaVuSans-2e" x="656.054688"/>
      <use xlink:href="#DejaVuSans-33" x="687.841797"/>
      <use xlink:href="#DejaVuSans-33" x="751.464844"/>
     </g>
    </g>
    <g id="line2d_59">
     <path d="M 819.542188 88.812813 
L 829.542188 88.812813 
L 839.542188 88.812813 
" style="fill: none; stroke-dasharray: 3.7,1.6; stroke-dashoffset: 0; stroke: #000000; stroke-opacity: 0.8"/>
    </g>
    <g id="text_45">
     <!-- Median: 13568.97 -->
     <g transform="translate(847.542188 92.312813) scale(0.1 -0.1)">
      <use xlink:href="#DejaVuSans-4d"/>
      <use xlink:href="#DejaVuSans-65" x="86.279297"/>
      <use xlink:href="#DejaVuSans-64" x="147.802734"/>
      <use xlink:href="#DejaVuSans-69" x="211.279297"/>
      <use xlink:href="#DejaVuSans-61" x="239.0625"/>
      <use xlink:href="#DejaVuSans-6e" x="300.341797"/>
      <use xlink:href="#DejaVuSans-3a" x="363.720703"/>
      <use xlink:href="#DejaVuSans-20" x="397.412109"/>
      <use xlink:href="#DejaVuSans-31" x="429.199219"/>
      <use xlink:href="#DejaVuSans-33" x="492.822266"/>
      <use xlink:href="#DejaVuSans-35" x="556.445312"/>
      <use xlink:href="#DejaVuSans-36" x="620.068359"/>
      <use xlink:href="#DejaVuSans-38" x="683.691406"/>
      <use xlink:href="#DejaVuSans-2e" x="747.314453"/>
      <use xlink:href="#DejaVuSans-39" x="779.101562"/>
      <use xlink:href="#DejaVuSans-37" x="842.724609"/>
     </g>
    </g>
    <g id="line2d_60">
     <path d="M 819.542188 103.490938 
L 829.542188 103.490938 
L 839.542188 103.490938 
" style="fill: none; stroke: #000000; stroke-opacity: 0.8; stroke-linecap: square"/>
    </g>
    <g id="text_46">
     <!-- Mode: 11290.26 -->
     <g transform="translate(847.542188 106.990938) scale(0.1 -0.1)">
      <use xlink:href="#DejaVuSans-4d"/>
      <use xlink:href="#DejaVuSans-6f" x="86.279297"/>
      <use xlink:href="#DejaVuSans-64" x="147.460938"/>
      <use xlink:href="#DejaVuSans-65" x="210.9375"/>
      <use xlink:href="#DejaVuSans-3a" x="272.460938"/>
      <use xlink:href="#DejaVuSans-20" x="306.152344"/>
      <use xlink:href="#DejaVuSans-31" x="337.939453"/>
      <use xlink:href="#DejaVuSans-31" x="401.5625"/>
      <use xlink:href="#DejaVuSans-32" x="465.185547"/>
      <use xlink:href="#DejaVuSans-39" x="528.808594"/>
      <use xlink:href="#DejaVuSans-30" x="592.431641"/>
      <use xlink:href="#DejaVuSans-2e" x="656.054688"/>
      <use xlink:href="#DejaVuSans-32" x="687.841797"/>
      <use xlink:href="#DejaVuSans-36" x="751.464844"/>
     </g>
    </g>
    <g id="line2d_61">
     <path d="M 819.542188 118.169062 
L 829.542188 118.169062 
L 839.542188 118.169062 
" style="fill: none; stroke-dasharray: 6.4,1.6,1,1.6; stroke-dashoffset: 0; stroke: #000000; stroke-opacity: 0.8"/>
    </g>
    <g id="text_47">
     <!-- Equal-tail 5th CI: 7444.84 -->
     <g transform="translate(847.542188 121.669062) scale(0.1 -0.1)">
      <use xlink:href="#DejaVuSans-45"/>
      <use xlink:href="#DejaVuSans-71" x="63.183594"/>
      <use xlink:href="#DejaVuSans-75" x="126.660156"/>
      <use xlink:href="#DejaVuSans-61" x="190.039062"/>
      <use xlink:href="#DejaVuSans-6c" x="251.318359"/>
      <use xlink:href="#DejaVuSans-2d" x="279.101562"/>
      <use xlink:href="#DejaVuSans-74" x="315.185547"/>
      <use xlink:href="#DejaVuSans-61" x="354.394531"/>
      <use xlink:href="#DejaVuSans-69" x="415.673828"/>
      <use xlink:href="#DejaVuSans-6c" x="443.457031"/>
      <use xlink:href="#DejaVuSans-20" x="471.240234"/>
      <use xlink:href="#DejaVuSans-35" x="503.027344"/>
      <use xlink:href="#DejaVuSans-74" x="566.650391"/>
      <use xlink:href="#DejaVuSans-68" x="605.859375"/>
      <use xlink:href="#DejaVuSans-20" x="669.238281"/>
      <use xlink:href="#DejaVuSans-43" x="701.025391"/>
      <use xlink:href="#DejaVuSans-49" x="770.849609"/>
      <use xlink:href="#DejaVuSans-3a" x="800.341797"/>
      <use xlink:href="#DejaVuSans-20" x="834.033203"/>
      <use xlink:href="#DejaVuSans-37" x="865.820312"/>
      <use xlink:href="#DejaVuSans-34" x="929.443359"/>
      <use xlink:href="#DejaVuSans-34" x="993.066406"/>
      <use xlink:href="#DejaVuSans-34" x="1056.689453"/>
      <use xlink:href="#DejaVuSans-2e" x="1120.3125"/>
      <use xlink:href="#DejaVuSans-38" x="1152.099609"/>
      <use xlink:href="#DejaVuSans-34" x="1215.722656"/>
     </g>
    </g>
    <g id="line2d_62">
     <path d="M 819.542188 132.847188 
L 829.542188 132.847188 
L 839.542188 132.847188 
" style="fill: none; stroke-dasharray: 6.4,1.6,1,1.6; stroke-dashoffset: 0; stroke: #000000; stroke-opacity: 0.8"/>
    </g>
    <g id="text_48">
     <!-- Equal-tail 95th CI: 21988.21 -->
     <g transform="translate(847.542188 136.347188) scale(0.1 -0.1)">
      <use xlink:href="#DejaVuSans-45"/>
      <use xlink:href="#DejaVuSans-71" x="63.183594"/>
      <use xlink:href="#DejaVuSans-75" x="126.660156"/>
      <use xlink:href="#DejaVuSans-61" x="190.039062"/>
      <use xlink:href="#DejaVuSans-6c" x="251.318359"/>
      <use xlink:href="#DejaVuSans-2d" x="279.101562"/>
      <use xlink:href="#DejaVuSans-74" x="315.185547"/>
      <use xlink:href="#DejaVuSans-61" x="354.394531"/>
      <use xlink:href="#DejaVuSans-69" x="415.673828"/>
      <use xlink:href="#DejaVuSans-6c" x="443.457031"/>
      <use xlink:href="#DejaVuSans-20" x="471.240234"/>
      <use xlink:href="#DejaVuSans-39" x="503.027344"/>
      <use xlink:href="#DejaVuSans-35" x="566.650391"/>
      <use xlink:href="#DejaVuSans-74" x="630.273438"/>
      <use xlink:href="#DejaVuSans-68" x="669.482422"/>
      <use xlink:href="#DejaVuSans-20" x="732.861328"/>
      <use xlink:href="#DejaVuSans-43" x="764.648438"/>
      <use xlink:href="#DejaVuSans-49" x="834.472656"/>
      <use xlink:href="#DejaVuSans-3a" x="863.964844"/>
      <use xlink:href="#DejaVuSans-20" x="897.65625"/>
      <use xlink:href="#DejaVuSans-32" x="929.443359"/>
      <use xlink:href="#DejaVuSans-31" x="993.066406"/>
      <use xlink:href="#DejaVuSans-39" x="1056.689453"/>
      <use xlink:href="#DejaVuSans-38" x="1120.3125"/>
      <use xlink:href="#DejaVuSans-38" x="1183.935547"/>
      <use xlink:href="#DejaVuSans-2e" x="1247.558594"/>
      <use xlink:href="#DejaVuSans-32" x="1279.345703"/>
      <use xlink:href="#DejaVuSans-31" x="1342.96875"/>
     </g>
    </g>
    <g id="line2d_63">
     <path d="M 819.542188 147.525312 
L 829.542188 147.525312 
L 839.542188 147.525312 
" style="fill: none; stroke-dasharray: 3,1,1,1; stroke-dashoffset: 0; stroke: #000000; stroke-opacity: 0.8"/>
    </g>
    <g id="text_49">
     <!-- HPD 5th CI: 6956.61 -->
     <g transform="translate(847.542188 151.025312) scale(0.1 -0.1)">
      <use xlink:href="#DejaVuSans-48"/>
      <use xlink:href="#DejaVuSans-50" x="75.195312"/>
      <use xlink:href="#DejaVuSans-44" x="135.498047"/>
      <use xlink:href="#DejaVuSans-20" x="212.5"/>
      <use xlink:href="#DejaVuSans-35" x="244.287109"/>
      <use xlink:href="#DejaVuSans-74" x="307.910156"/>
      <use xlink:href="#DejaVuSans-68" x="347.119141"/>
      <use xlink:href="#DejaVuSans-20" x="410.498047"/>
      <use xlink:href="#DejaVuSans-43" x="442.285156"/>
      <use xlink:href="#DejaVuSans-49" x="512.109375"/>
      <use xlink:href="#DejaVuSans-3a" x="541.601562"/>
      <use xlink:href="#DejaVuSans-20" x="575.292969"/>
      <use xlink:href="#DejaVuSans-36" x="607.080078"/>
      <use xlink:href="#DejaVuSans-39" x="670.703125"/>
      <use xlink:href="#DejaVuSans-35" x="734.326172"/>
      <use xlink:href="#DejaVuSans-36" x="797.949219"/>
      <use xlink:href="#DejaVuSans-2e" x="861.572266"/>
      <use xlink:href="#DejaVuSans-36" x="893.359375"/>
      <use xlink:href="#DejaVuSans-31" x="956.982422"/>
     </g>
    </g>
    <g id="line2d_64">
     <path d="M 819.542188 162.203438 
L 829.542188 162.203438 
L 839.542188 162.203438 
" style="fill: none; stroke-dasharray: 3,1,1,1; stroke-dashoffset: 0; stroke: #000000; stroke-opacity: 0.8"/>
    </g>
    <g id="text_50">
     <!-- HPD 95th CI: 20796.17 -->
     <g transform="translate(847.542188 165.703438) scale(0.1 -0.1)">
      <use xlink:href="#DejaVuSans-48"/>
      <use xlink:href="#DejaVuSans-50" x="75.195312"/>
      <use xlink:href="#DejaVuSans-44" x="135.498047"/>
      <use xlink:href="#DejaVuSans-20" x="212.5"/>
      <use xlink:href="#DejaVuSans-39" x="244.287109"/>
      <use xlink:href="#DejaVuSans-35" x="307.910156"/>
      <use xlink:href="#DejaVuSans-74" x="371.533203"/>
      <use xlink:href="#DejaVuSans-68" x="410.742188"/>
      <use xlink:href="#DejaVuSans-20" x="474.121094"/>
      <use xlink:href="#DejaVuSans-43" x="505.908203"/>
      <use xlink:href="#DejaVuSans-49" x="575.732422"/>
      <use xlink:href="#DejaVuSans-3a" x="605.224609"/>
      <use xlink:href="#DejaVuSans-20" x="638.916016"/>
      <use xlink:href="#DejaVuSans-32" x="670.703125"/>
      <use xlink:href="#DejaVuSans-30" x="734.326172"/>
      <use xlink:href="#DejaVuSans-37" x="797.949219"/>
      <use xlink:href="#DejaVuSans-39" x="861.572266"/>
      <use xlink:href="#DejaVuSans-36" x="925.195312"/>
      <use xlink:href="#DejaVuSans-2e" x="988.818359"/>
      <use xlink:href="#DejaVuSans-31" x="1020.605469"/>
      <use xlink:href="#DejaVuSans-37" x="1084.228516"/>
     </g>
    </g>
    <g id="line2d_65">
     <path d="M 819.542188 176.881562 
L 829.542188 176.881562 
L 839.542188 176.881562 
" style="fill: none; stroke: #000000; stroke-linecap: square"/>
    </g>
    <g id="text_51">
     <!-- ESS:749.23 -->
     <g transform="translate(847.542188 180.381562) scale(0.1 -0.1)">
      <use xlink:href="#DejaVuSans-45"/>
      <use xlink:href="#DejaVuSans-53" x="63.183594"/>
      <use xlink:href="#DejaVuSans-53" x="126.660156"/>
      <use xlink:href="#DejaVuSans-3a" x="190.136719"/>
      <use xlink:href="#DejaVuSans-37" x="223.828125"/>
      <use xlink:href="#DejaVuSans-34" x="287.451172"/>
      <use xlink:href="#DejaVuSans-39" x="351.074219"/>
      <use xlink:href="#DejaVuSans-2e" x="414.697266"/>
      <use xlink:href="#DejaVuSans-32" x="446.484375"/>
      <use xlink:href="#DejaVuSans-33" x="510.107422"/>
     </g>
    </g>
    <g id="line2d_66">
     <path d="M 819.542188 191.559687 
L 829.542188 191.559687 
L 839.542188 191.559687 
" style="fill: none; stroke: #000000; stroke-linecap: square"/>
    </g>
    <g id="text_52">
     <!-- R_hat:1.00 -->
     <g transform="translate(847.542188 195.059687) scale(0.1 -0.1)">
      <use xlink:href="#DejaVuSans-52"/>
      <use xlink:href="#DejaVuSans-5f" x="69.482422"/>
      <use xlink:href="#DejaVuSans-68" x="119.482422"/>
      <use xlink:href="#DejaVuSans-61" x="182.861328"/>
      <use xlink:href="#DejaVuSans-74" x="244.140625"/>
      <use xlink:href="#DejaVuSans-3a" x="283.349609"/>
      <use xlink:href="#DejaVuSans-31" x="317.041016"/>
      <use xlink:href="#DejaVuSans-2e" x="380.664062"/>
      <use xlink:href="#DejaVuSans-30" x="412.451172"/>
      <use xlink:href="#DejaVuSans-30" x="476.074219"/>
     </g>
    </g>
   </g>
  </g>
  <g id="text_53">
   <!-- Posterior distribution -->
   <g transform="translate(451.824219 16.238437) scale(0.1 -0.1)">
    <use xlink:href="#DejaVuSans-50"/>
    <use xlink:href="#DejaVuSans-6f" x="56.677734"/>
    <use xlink:href="#DejaVuSans-73" x="117.859375"/>
    <use xlink:href="#DejaVuSans-74" x="169.958984"/>
    <use xlink:href="#DejaVuSans-65" x="209.167969"/>
    <use xlink:href="#DejaVuSans-72" x="270.691406"/>
    <use xlink:href="#DejaVuSans-69" x="311.804688"/>
    <use xlink:href="#DejaVuSans-6f" x="339.587891"/>
    <use xlink:href="#DejaVuSans-72" x="400.769531"/>
    <use xlink:href="#DejaVuSans-20" x="441.882812"/>
    <use xlink:href="#DejaVuSans-64" x="473.669922"/>
    <use xlink:href="#DejaVuSans-69" x="537.146484"/>
    <use xlink:href="#DejaVuSans-73" x="564.929688"/>
    <use xlink:href="#DejaVuSans-74" x="617.029297"/>
    <use xlink:href="#DejaVuSans-72" x="656.238281"/>
    <use xlink:href="#DejaVuSans-69" x="697.351562"/>
    <use xlink:href="#DejaVuSans-62" x="725.134766"/>
    <use xlink:href="#DejaVuSans-75" x="788.611328"/>
    <use xlink:href="#DejaVuSans-74" x="851.990234"/>
    <use xlink:href="#DejaVuSans-69" x="891.199219"/>
    <use xlink:href="#DejaVuSans-6f" x="918.982422"/>
    <use xlink:href="#DejaVuSans-6e" x="980.164062"/>
   </g>
  </g>
 </g>
 <defs>
  <clipPath id="p5a792a12ac">
   <rect x="44.57" y="31.68" width="454.03" height="358.25875"/>
  </clipPath>
  <clipPath id="p0d773919c4">
   <rect x="543.17" y="31.68" width="454.03" height="358.25875"/>
  </clipPath>
 </defs>
</svg>
